<svg width="777" height="700" viewBox="0 0 777 700" fill="none" xmlns="http://www.w3.org/2000/svg">
<circle cx="388.244" cy="334.244" r="330" fill="#FBCE51"/>
<g style="mix-blend-mode:overlay">
<path d="M530.78 617.3L530.388 616.482L531.885 615.457L527.706 607.106L527.373 609.869L525.468 618.118L525.652 618.574L527.211 618.076L527.603 618.894L523.006 621.227L522.614 620.409L523.87 619.523L518.723 609.079L517.259 609.603L516.867 608.785L521.559 606.477L521.951 607.295L520.6 608.156L524.849 616.628L525.131 614.055L527.087 605.616L526.739 605.013L525.059 605.582L524.667 604.764L529.359 602.456L529.751 603.274L528.4 604.134L533.547 614.578L534.986 614.149L535.378 614.967L530.78 617.3Z" fill="black"/>
<path d="M519.405 622.502C518.897 622.876 518.536 623.084 518.174 623.293C517.813 623.502 517.451 623.711 517.115 623.824C515.72 624.469 514.522 624.759 513.546 624.599C512.57 624.44 511.887 623.951 511.45 622.918C511.084 622.004 511.003 621.168 511.327 620.338C511.651 619.508 512.235 618.85 512.983 618.337C511.95 618.773 511.018 618.829 510.163 618.6C509.333 618.276 508.77 617.717 508.378 616.899C507.802 615.625 507.772 614.598 508.242 613.604C508.712 612.609 509.753 611.768 511.389 610.984C512.086 610.661 512.758 610.434 513.284 610.371C513.836 610.213 514.362 610.151 514.673 610.132C514.983 610.113 515.199 610.069 515.294 610.095L516.291 613.214L515.473 613.606L513.98 611.576C513.289 611.493 512.522 611.695 511.489 612.131C510.696 612.428 510.258 612.922 510.08 613.587C509.902 614.252 510.009 614.994 510.375 615.907C510.697 616.604 511.166 617.137 511.806 617.411C512.445 617.684 513.282 617.602 514.316 617.166L515.47 616.661L515.931 617.599L514.898 618.035C514.441 618.219 514.054 618.522 513.642 618.921C513.324 619.345 513.102 619.795 512.975 620.27C512.942 620.771 512.98 621.392 513.232 621.969C513.529 622.762 514.023 623.199 514.593 623.352C515.164 623.505 515.81 623.373 516.603 623.076C517.085 622.797 517.541 622.614 517.833 622.285C518.125 621.956 518.297 621.696 518.347 621.506L517.995 619.782L519.054 619.251L520.394 621.851C520.274 621.92 519.912 622.129 519.405 622.502Z" fill="black"/>
<path d="M504.181 627.998L505.69 627.689L506.056 628.602L503.679 629.493C503.317 629.702 502.766 629.859 502.189 630.112C501.612 630.365 501.25 630.574 501.009 630.713C499.424 631.307 498.156 631.476 497.301 631.247C496.446 631.018 495.787 630.434 495.446 629.426C495.149 628.633 495.068 627.797 495.367 627.062C495.571 626.302 496.154 625.643 496.877 625.226C495.749 625.637 494.792 625.787 493.962 625.463C493.132 625.139 492.473 624.555 492.132 623.547C491.627 622.393 491.717 621.297 492.308 620.233C492.898 619.169 494.059 618.258 495.98 617.55C496.437 617.367 496.773 617.253 497.204 617.165C498.092 616.893 498.669 616.641 498.884 616.597L501.167 615.68L501.438 616.568L500.018 617.308L504.181 627.998ZM496.277 618.343C495.123 618.848 494.375 619.361 493.981 620.07C493.587 620.779 493.694 621.521 493.965 622.409C494.332 623.322 494.8 623.855 495.44 624.128C496.08 624.401 496.916 624.32 497.95 623.884C499.104 623.378 499.871 623.176 500.233 622.967L498.268 617.756C497.862 617.749 497.285 618.002 496.277 618.343ZM499.54 624.412L498.627 624.778C497.835 625.075 497.302 625.543 497.028 626.183C496.755 626.823 496.767 627.539 497.159 628.357C497.456 629.15 497.924 629.683 498.469 629.93C499.014 630.178 499.85 630.097 500.884 629.661C501.34 629.478 501.702 629.269 502.158 629.086L502.52 628.877L500.669 624.001C500.428 624.14 500.092 624.254 499.54 624.412Z" fill="black"/>
<path d="M489.343 634.717L487.422 635.425L479.012 624.615L477.84 624.81L477.568 623.923L482.273 622.331L482.544 623.219L481.149 623.864L482.851 626.255L488.012 624.48L487.965 621.616L486.361 621.899L486.089 621.011L490.337 619.603L490.609 620.491L489.55 621.022L489.343 634.717ZM487.356 632.25L488.311 633.626L488.174 631.858L488.017 625.602L483.528 627.15L487.356 632.25Z" fill="black"/>
<path d="M474.727 625.402C475.868 625.708 476.742 626.248 477.514 627.168C478.286 628.087 478.912 629.172 479.246 630.586C479.606 631.904 479.68 633.147 479.444 634.407C479.208 635.668 478.643 636.637 477.818 637.435C476.993 638.232 476.004 638.884 474.78 639.269C473.893 639.541 472.72 639.736 471.383 639.785L470.762 639.822L470.005 636.564L471.229 636.178L472.386 638.322C472.576 638.373 472.956 638.475 473.362 638.482C473.767 638.488 474.319 638.331 474.965 638.198C475.732 637.996 476.36 637.554 476.824 636.965C477.287 636.376 477.611 635.546 477.65 634.64C477.69 633.734 477.589 632.586 477.274 631.483C476.958 630.38 476.522 629.347 475.915 628.573C475.307 627.799 474.674 627.12 473.94 626.821C473.205 626.522 472.324 626.388 471.436 626.66C470.79 626.792 470.308 627.07 470.067 627.209C469.826 627.348 469.534 627.678 469.363 627.937L469.138 629.914L467.966 630.109L467.652 627.479C467.867 627.435 468.229 627.226 468.711 626.948C469.098 626.644 469.459 626.435 469.916 626.252C470.277 626.044 470.829 625.886 471.381 625.728C472.44 625.197 473.587 625.097 474.727 625.402Z" fill="black"/>
<path d="M460.64 639.962C460.265 640.982 459.7 641.951 459.021 642.584C458.222 643.286 457.378 643.773 456.421 643.924C455.223 644.214 454.127 644.124 453.202 643.775C452.277 643.425 451.428 642.79 450.751 641.896C450.074 641.001 449.543 639.942 449.304 638.554C448.995 637.045 448.946 635.708 449.157 634.542C449.393 633.281 449.958 632.312 450.688 631.489C451.418 630.666 452.356 630.205 453.459 629.889C454.657 629.599 455.779 629.594 456.799 629.969C457.819 630.344 458.572 630.954 459.275 631.753C459.952 632.648 460.483 633.707 460.722 635.095L463.645 634.452L462.422 629.133L460.843 629.321L460.667 628.459L465.675 627.255L465.851 628.117L464.387 628.641L467.06 639.951L468.518 639.832L468.695 640.694L463.807 641.829L463.63 640.967L465.095 640.443L463.96 635.555L461.012 636.293C461.036 637.725 460.92 638.917 460.64 639.962ZM458.573 640.834C458.999 639.624 459.001 638.097 458.535 636.037C458.087 634.287 457.442 632.892 456.549 632.041C455.657 631.191 454.637 630.816 453.344 631.081C452.146 631.371 451.441 632.099 451.041 633.214C450.64 634.329 450.708 635.976 451.174 638.037C451.622 639.786 452.172 641.156 453.064 642.006C453.932 642.952 454.977 643.232 456.08 642.916C457.348 642.747 458.147 642.044 458.573 640.834Z" fill="black"/>
<path d="M439.366 639.151C438.803 638.592 437.98 637.862 437.112 636.917C436.48 636.238 436.106 635.731 435.777 635.439C435.448 635.147 435.188 634.975 434.998 634.925L434.307 634.841L434.131 633.979L436.381 633.564C436.692 633.545 437.047 633.742 437.445 634.154C437.844 634.567 438.477 635.246 439.154 636.14C439.996 637.18 440.629 637.859 441.192 638.418C441.66 638.951 442.11 639.173 442.541 639.085L443.714 638.89L442.776 633.647L441.128 633.715L440.952 632.853L445.978 631.959L446.129 632.916L444.69 633.345L446.717 644.787L448.245 644.789L448.396 645.746L443.489 646.571L443.389 645.423L444.854 644.899L443.941 639.562L442.338 639.845L439.516 645.812L441.069 645.718L441.22 646.676L436.72 647.507L436.569 646.55L438.008 646.12L441.07 640.015C440.569 639.982 439.955 639.614 439.366 639.151Z" fill="black"/>
<path d="M431.012 634.977C432.006 635.447 432.734 636.151 433.265 637.21C433.822 638.174 434.207 639.398 434.446 640.786C434.685 642.174 434.544 643.461 434.118 644.671C433.718 645.786 433.057 646.729 432.258 647.432C431.364 648.109 430.425 648.57 429.157 648.74C427.243 649.042 425.627 648.609 424.501 647.492C423.374 646.375 422.565 644.834 422.339 642.635C422.125 641.152 422.266 639.865 422.667 638.75C423.093 637.54 423.728 636.692 424.553 635.894C425.447 635.217 426.481 634.781 427.653 634.586C428.921 634.417 430.017 634.507 431.012 634.977ZM431.785 645.777C432.306 644.592 432.498 643.116 432.247 641.012C432.04 639.123 431.49 637.753 430.648 636.713C429.807 635.672 428.787 635.297 427.614 635.492C426.442 635.687 425.573 636.269 425.051 637.454C424.53 638.638 424.313 640.21 424.589 642.219C424.796 644.108 425.346 645.478 426.213 646.423C426.985 647.343 427.98 647.813 429.247 647.644C430.369 647.639 431.264 646.961 431.785 645.777Z" fill="black"/>
<path d="M419.638 648.532L421.14 648.629L421.196 649.56L418.686 649.805C418.281 649.798 417.729 649.956 417.108 649.993C416.461 650.125 416.056 650.118 415.84 650.162C414.167 650.325 412.88 650.184 412.102 649.67C411.323 649.156 410.905 648.433 410.78 647.381C410.698 646.544 410.928 645.689 411.296 645.074C411.664 644.46 412.413 643.948 413.3 643.676C412.153 643.776 411.177 643.616 410.398 643.102C409.619 642.588 409.227 641.77 409.171 640.838C409.097 639.596 409.377 638.551 410.227 637.658C411.078 636.765 412.447 636.216 414.526 636.06C414.957 635.972 415.363 635.978 415.863 636.011C416.795 635.955 417.416 635.917 417.606 635.968L420.116 635.724L420.172 636.656L418.663 636.965L419.638 648.532ZM414.652 637.112C413.409 637.186 412.496 637.553 412.033 638.142C411.475 638.705 411.271 639.465 411.422 640.423C411.478 641.354 411.8 642.052 412.319 642.395C412.839 642.738 413.694 642.967 414.746 642.841C415.988 642.767 416.825 642.685 417.161 642.572L416.705 637.051C416.325 636.949 415.704 636.986 414.652 637.112ZM416.209 643.844L415.157 643.97C414.32 644.051 413.623 644.374 413.28 644.893C412.937 645.412 412.733 646.172 412.815 647.009C412.896 647.846 413.123 648.518 413.643 648.861C414.162 649.203 414.922 649.407 415.974 649.282C416.405 649.193 416.906 649.226 417.363 649.043L417.794 648.954L417.356 643.744C417.046 643.763 416.735 643.782 416.209 643.844Z" fill="black"/>
<path d="M390.286 651.26L390.23 650.328L391.833 650.045L391.48 638.44L389.693 638.267L389.637 637.336L394.866 637.209L394.921 638.14L393.343 638.329L393.671 650.028L399.616 649.89L399.288 638.19L397.596 638.042L397.54 637.11L402.769 636.984L402.825 637.915L401.341 638.129L401.695 649.734L403.267 649.951L403.323 650.883L390.286 651.26Z" fill="black"/>
<path d="M385.878 638.06C386.726 638.695 387.429 639.494 387.839 640.623C388.275 641.656 388.445 642.924 388.469 644.356C388.397 645.763 388.161 647.024 387.571 648.088C386.98 649.152 386.25 649.975 385.286 650.532C384.322 651.088 383.219 651.404 382.097 651.409C380.164 651.4 378.72 650.708 377.714 649.521C376.733 648.24 376.26 646.585 376.25 644.342C376.226 642.909 376.583 641.579 377.173 640.515C377.764 639.451 378.519 638.533 379.483 637.976C380.447 637.42 381.55 637.104 382.767 637.125C383.984 637.145 385.029 637.425 385.878 638.06ZM385.123 648.858C385.809 647.82 386.216 646.299 386.251 644.271C386.234 642.433 385.925 640.925 385.299 639.84C384.673 638.756 383.704 638.19 382.487 638.17C381.27 638.15 380.306 638.706 379.621 639.745C378.935 640.783 378.502 642.399 378.468 644.427C378.459 646.36 378.698 647.748 379.419 648.858C380.046 649.942 381.015 650.507 382.231 650.528C383.404 650.333 384.343 649.871 385.123 648.858Z" fill="black"/>
<path d="M370.371 641.952C370.735 640.216 371.161 639.006 371.796 638.157C372.113 637.733 372.405 637.404 372.766 637.195C373.128 636.986 373.559 636.898 373.964 636.905C374.56 636.963 374.966 636.97 375.251 637.046L375.249 638.573C374.964 638.497 374.463 638.465 373.868 638.407C373.678 638.356 373.462 638.4 373.221 638.539C372.98 638.678 372.834 638.843 372.688 639.007C371.59 640.445 370.991 643.442 370.7 647.947L370.603 649.449L372.745 649.82L372.706 650.726L361.882 650.066L361.921 649.16L363.689 649.023L364.457 637.413L362.601 637.119L362.64 636.213L368.337 636.619L368.298 637.526L366.34 637.612L365.571 649.222L369.386 649.429L369.534 647.737C369.809 645.57 370.034 643.593 370.371 641.952Z" fill="black"/>
<path d="M358.493 648.649L360.014 649.057L359.879 649.937L350.374 648.918L350.448 645.984L351.544 646.074L351.871 647.893L356.491 648.52L357.08 643.279L354.006 642.965L353.599 644.486L352.598 644.421L353.028 640.156L354.029 640.221L354.097 641.869L357.144 642.278L357.715 636.727L352.424 636.328L351.217 638.551L350.127 638.055L350.993 634.824L361.284 635.952L361.15 636.833L359.623 636.831L358.493 648.649Z" fill="black"/>
<path d="M343.057 646.957L346.225 647.297L347.434 643.547L348.6 643.757L347.586 648.68L336.041 646.911L336.554 641.956L337.72 642.166L337.772 646.153L340.985 646.708L342.684 635.042L340.093 634.45L340.227 633.569L347.273 634.642L347.139 635.523L344.731 635.387L343.057 646.957Z" fill="black"/>
<path d="M329.727 637.784L330.608 637.918C330.944 637.804 331.356 637.405 331.699 636.886C332.042 636.367 332.626 635.708 333.14 634.929C333.654 634.151 334.118 633.562 334.435 633.137C334.752 632.713 334.993 632.574 335.183 632.625L337.705 633.097L337.571 633.978L336.829 634.085C336.614 634.129 336.398 634.173 336.106 634.502C335.84 634.736 335.402 635.23 334.939 635.819C334.329 636.572 333.866 637.161 333.454 637.56C333.016 638.054 332.654 638.262 332.198 638.446C333.002 638.865 333.565 639.423 333.888 640.121C334.21 640.818 334.292 641.655 334.132 642.631C333.845 644.082 333.185 645.025 332.272 645.392C331.264 645.733 330.021 645.807 328.38 645.47C328 645.368 327.62 645.266 327.05 645.113C326.48 644.96 326.005 644.833 325.719 644.757L323.103 644.259L323.237 643.378L324.834 643.501L327.078 632.083L325.393 631.53L325.527 630.649L330.951 631.695L330.817 632.575L329.03 632.402L328.137 637.256L329.727 637.784ZM327.184 644.232C327.754 644.385 328.229 644.512 328.61 644.614C329.585 644.774 330.302 644.762 330.904 644.414C331.507 644.066 331.875 643.452 332.06 642.381C332.22 641.405 332.138 640.569 331.695 639.941C331.252 639.313 330.638 638.944 329.688 638.69C328.712 638.53 328.047 638.352 327.736 638.371L326.639 643.984L327.184 644.232Z" fill="black"/>
<path d="M316.603 641.906L319.79 642.557L321.284 638.883L322.519 639.214L321.031 644.009L309.74 641.29L310.659 636.341L311.799 636.647L311.446 640.626L314.582 641.467L317.257 629.961L314.717 629.178L314.946 628.323L321.935 629.992L321.705 630.847L319.253 630.495L316.603 641.906Z" fill="black"/>
<path d="M304.599 626.263C305.397 627.088 305.833 628.122 306.028 629.294C306.223 630.467 306.082 631.754 305.7 633.179C305.344 634.509 304.633 635.643 303.808 636.441C302.957 637.333 301.898 637.864 300.795 638.18C299.597 638.47 298.501 638.38 297.265 638.049C296.315 637.794 295.321 637.324 294.066 636.682L293.522 636.435L294.673 633.28L295.908 633.611L295.677 635.994C295.816 636.235 296.076 636.406 296.431 636.603C296.785 636.8 297.33 637.048 297.9 637.2C298.66 637.404 299.377 637.392 300.144 637.19C300.816 636.963 301.564 636.451 302.078 635.672C302.688 634.918 303.158 633.924 303.463 632.783C303.769 631.643 303.954 630.572 303.924 629.545C303.893 628.519 303.622 627.631 303.204 626.908C302.787 626.185 302.103 625.696 301.153 625.442C300.487 625.263 300.012 625.136 299.607 625.129C299.201 625.122 298.865 625.236 298.624 625.375L297.405 626.882L296.316 626.387L297.479 623.948C297.764 624.024 298.169 624.031 298.67 624.063C299.171 624.096 299.576 624.103 299.982 624.109C300.387 624.116 300.958 624.269 301.528 624.422C302.763 624.753 303.827 625.344 304.599 626.263Z" fill="black"/>
<path d="M286.16 634.259L286.484 633.429L288.315 633.817L291.4 624.968L289.224 626.625L282.013 631.11L281.885 631.585L283.425 632.303L283.1 633.133L278.26 631.429L278.585 630.599L280.036 630.886L283.801 619.876L282.357 619.183L282.681 618.353L287.616 620.083L287.291 620.913L285.65 620.575L282.541 629.52L284.596 627.932L292.023 623.403L292.201 622.738L290.567 621.994L290.891 621.164L295.826 622.894L295.502 623.724L293.956 623.411L290.191 634.422L291.54 635.089L291.215 635.919L286.16 634.259Z" fill="black"/>
<path d="M267.067 627.207L268.72 622.557L269.93 622.983L269.032 626.715L272.776 628.329L277.136 617.377L274.153 615.966L274.477 615.137L281.306 617.781L280.982 618.611L278.986 618.076L274.771 628.864L276.545 629.849L276.22 630.678L267.067 627.207Z" fill="black"/>
<path d="M264.528 624.897L265.731 625.729L265.407 626.559L260.764 624.5L261.088 623.67L262.609 624.077L264.642 619.53L258.625 616.899L256.591 621.446L257.89 622.304L257.565 623.133L253.017 621.1L253.342 620.27L254.767 620.652L259.457 609.992L258.133 609.229L258.458 608.4L263.006 610.433L262.681 611.263L261.186 610.76L258.93 615.758L264.948 618.389L267.204 613.391L265.785 612.604L266.109 611.774L270.847 613.858L270.523 614.688L269.123 614.211L264.528 624.897Z" fill="black"/>
<path d="M246.817 618.012L245.018 617.123L246.726 603.524L245.783 602.864L246.202 602.06L250.604 604.258L250.185 605.062L248.69 604.56L248.236 607.392L253.088 609.813L255.081 607.698L253.687 606.816L254.107 606.011L258.059 607.987L257.64 608.791L256.525 608.391L246.817 618.012ZM247.061 614.818L246.723 616.46L247.891 615.143L252.263 610.61L248.051 608.463L247.061 614.818Z" fill="black"/>
<path d="M239.507 604.239C240.579 602.896 241.55 601.934 242.419 601.352C242.901 601.074 243.237 600.96 243.668 600.872C244.074 600.879 244.454 600.981 244.904 601.203C245.448 601.451 245.778 601.743 246.037 601.914L245.465 603.289C245.206 603.117 244.851 602.92 244.237 602.552C244.072 602.406 243.882 602.355 243.666 602.399C243.451 602.443 243.235 602.487 242.994 602.627C241.453 603.436 239.575 605.886 237.288 609.857L236.526 611.181L238.318 612.476L237.899 613.28L228.513 608.015L228.932 607.211L230.592 607.859L236.276 597.669L234.718 596.64L235.138 595.836L240.198 598.618L239.779 599.422L238.049 598.653L232.391 608.749L235.678 610.546L236.491 609.032C237.38 607.234 238.434 605.581 239.507 604.239Z" fill="black"/>
<path d="M211.458 597.538L211.972 596.759L213.607 597.502L219.81 587.655L218.468 586.582L218.982 585.803L223.586 588.768L223.072 589.547L221.533 588.829L215.329 598.677L216.671 599.75L216.157 600.528L211.458 597.538ZM224.271 599.138C222.973 598.28 222.201 597.36 221.859 596.352C221.518 595.344 221.704 594.273 222.415 593.14C223.151 591.911 224.141 591.26 225.313 591.065C226.486 590.87 227.722 591.201 229.045 591.963C229.21 592.109 229.4 592.16 229.565 592.306C229.729 592.452 229.894 592.598 230.084 592.648C230.673 593.112 231.192 593.455 231.616 593.772L233.788 595.169L233.274 595.948L231.83 595.255L225.626 605.103L226.778 606.125L226.264 606.903L221.73 604.059L222.244 603.28L223.973 604.049L226.278 600.388L224.271 599.138ZM229.614 593.643C229.449 593.497 229.189 593.325 228.74 593.103C227.866 592.563 227.01 592.334 226.243 592.536C225.476 592.738 224.823 593.276 224.163 594.219C223.623 595.093 223.419 595.854 223.621 596.621C223.823 597.388 224.361 598.041 225.235 598.581L226.888 599.635L230.247 594.322C230.038 593.96 229.873 593.814 229.614 593.643Z" fill="black"/>
<path d="M205.02 591.535L206.052 592.626L205.537 593.405L201.46 590.377L201.974 589.598L203.393 590.386L206.42 586.308L201.14 582.448L198.112 586.526L199.143 587.617L198.629 588.396L194.646 585.394L195.161 584.615L196.51 585.282L203.397 575.923L202.34 574.927L202.854 574.148L206.932 577.176L206.418 577.955L205.094 577.193L201.895 581.53L207.176 585.39L210.375 581.052L209.153 579.91L209.668 579.131L213.84 582.184L213.326 582.963L212.003 582.201L205.02 591.535Z" fill="black"/>
<path d="M189.182 581.077L187.606 579.738L192.191 566.809L191.419 565.889L192.003 565.23L195.865 568.302L195.255 569.056L193.957 568.199L192.934 570.878L197.195 574.363L199.656 572.781L198.529 571.665L199.113 571.006L202.551 573.761L201.967 574.419L200.903 573.829L189.182 581.077ZM190.187 578.087L189.564 579.652L190.966 578.602L196.18 575.109L192.508 572.088L190.187 578.087Z" fill="black"/>
<path d="M178.079 570.056L179.389 571.629L178.805 572.287L175.14 568.861L178.901 560.905L180.083 558.777L178.078 560.175L170.487 564.558L166.891 561.252L167.475 560.594L169.172 561.863L175.99 552.384L174.914 551.077L175.498 550.419L179.397 554.112L178.814 554.77L177.446 553.793L172.393 560.485L170.197 563.36L172.607 561.969L181.593 556.941L182.486 557.791L178.641 566.438L177.034 569.776L179.724 567.339L186.024 561.693L184.758 560.335L185.342 559.677L188.938 562.983L188.354 563.642L187.081 562.69L178.079 570.056Z" fill="black"/>
<path d="M161.751 556.106L160.321 554.603L166.445 542.391L165.793 541.402L166.472 540.769L169.897 544.334L169.218 544.967L167.945 544.015L166.541 546.593L170.39 550.476L172.99 549.136L172.009 547.854L172.688 547.221L175.809 550.4L175.13 551.033L174.186 550.373L161.751 556.106ZM163.136 553.218L162.323 554.732L163.864 553.922L169.521 551.058L166.166 547.613L163.136 553.218Z" fill="black"/>
<path d="M155.544 547.72L156.335 548.951L155.656 549.584L154.017 547.719C153.688 547.427 153.384 547.04 153.055 546.748C152.561 546.31 152.092 545.777 151.694 545.364C150.523 544.032 149.922 542.853 149.892 541.826C149.861 540.799 150.401 539.925 151.372 538.963C152.146 538.356 152.894 537.843 153.731 537.762C154.593 537.585 155.474 537.719 156.303 538.044C157.133 538.368 157.887 538.977 158.589 539.777C158.823 540.043 159.058 540.31 159.292 540.576C159.526 540.842 159.665 541.083 159.76 541.109L162.837 538.368L161.249 536.313L161.928 535.68L166.004 540.235L165.325 540.868L164.173 539.847L155.544 547.72ZM157.885 540.505C157.252 539.826 156.448 539.406 155.662 539.298C154.876 539.189 153.843 539.625 152.872 540.587C152.072 541.29 151.679 541.999 151.69 542.715C151.702 543.432 152.094 544.25 152.797 545.049C153.031 545.315 153.36 545.607 153.689 545.899C153.854 546.045 154.019 546.191 154.088 546.312L159.03 541.932C158.796 541.666 158.423 541.158 157.885 540.505Z" fill="black"/>
<path d="M155.844 529.874C156.039 531.047 155.854 532.118 155.264 533.182C154.768 534.271 153.892 535.259 152.826 536.195C151.761 537.132 150.607 537.638 149.434 537.833C148.261 538.028 147.044 538.007 145.955 537.512C144.84 537.111 143.897 536.451 143.055 535.411C142.447 534.637 141.796 533.647 141.195 532.468L140.942 531.891L143.626 529.86L144.398 530.779L142.887 532.615C142.931 532.831 142.95 533.142 143.133 533.598C143.342 533.96 143.62 534.442 143.993 534.949C144.531 535.602 145.146 535.971 145.906 536.175C146.666 536.378 147.503 536.297 148.39 536.025C149.278 535.754 150.242 535.197 151.162 534.425C152.082 533.653 152.786 532.925 153.326 532.051C153.866 531.177 154.19 530.347 154.203 529.536C154.217 528.725 153.92 527.933 153.408 527.184C153.034 526.677 152.61 526.359 152.281 526.067C151.952 525.775 151.667 525.699 151.356 525.718L149.46 526.33L148.809 525.341L151.098 524.019C151.263 524.165 151.592 524.457 152.016 524.774C152.441 525.092 152.795 525.288 153.124 525.58C153.454 525.872 153.757 526.259 154.251 526.697C155.213 527.668 155.744 528.727 155.844 529.874Z" fill="black"/>
<path d="M125.37 511.319L126.118 510.807L127.264 512.234L135.084 506.996L132.34 506.973L123.906 506.139L123.519 506.443L124.233 507.959L123.485 508.471L120.67 504.152L121.418 503.639L122.45 504.731L132.129 498.259L131.389 496.839L132.137 496.326L135.047 500.671L134.299 501.183L133.223 499.876L125.282 505.184L127.836 505.156L136.461 506.04L137.063 505.693L136.254 504.152L137.002 503.639L139.912 507.984L139.164 508.496L138.158 507.31L128.479 513.782L129.123 515.177L128.375 515.689L125.37 511.319Z" fill="black"/>
<path d="M118.747 500.683C118.348 500.271 118.045 499.884 117.715 499.592C117.386 499.3 117.273 498.964 117.038 498.697C116.273 497.372 115.863 496.243 115.832 495.217C115.802 494.19 116.29 493.506 117.254 492.949C118.098 492.462 118.96 492.286 119.815 492.515C120.671 492.744 121.354 493.233 121.987 493.912C121.431 492.948 121.185 491.965 121.414 491.11C121.643 490.255 122.132 489.571 122.881 489.058C123.99 488.337 125.163 488.142 126.183 488.517C127.203 488.893 128.191 489.768 129.19 491.36C129.538 491.963 129.886 492.565 130.043 493.117C130.201 493.668 130.385 494.125 130.498 494.461C130.612 494.797 130.656 495.013 130.63 495.108L127.72 496.467L127.233 495.623L129.003 493.958C128.991 493.242 128.694 492.45 128.112 491.581C127.695 490.858 127.106 490.394 126.51 490.337C125.915 490.279 125.053 490.455 124.209 490.942C123.581 491.385 123.143 491.879 122.87 492.519C122.692 493.184 122.868 494.046 123.45 494.915L124.171 496.025L123.302 496.607L122.746 495.643C122.468 495.161 122.138 494.869 121.714 494.552C121.29 494.234 120.815 494.107 120.314 494.075C119.813 494.043 119.262 494.2 118.659 494.548C117.936 494.966 117.594 495.485 117.441 496.055C117.383 496.651 117.515 497.297 117.933 498.02C118.211 498.502 118.515 498.889 118.869 499.086C119.199 499.378 119.484 499.454 119.699 499.41L121.379 498.842L122.031 499.831L119.665 501.438C119.475 501.387 119.241 501.121 118.747 500.683Z" fill="black"/>
<path d="M111.4 486.288L111.925 487.752L111.107 488.144L109.88 485.88C109.671 485.519 109.393 485.037 109.019 484.529C108.646 484.022 108.437 483.66 108.298 483.419C107.489 481.878 107.199 480.68 107.238 479.774C107.372 478.893 107.861 478.209 108.825 477.653C109.643 477.261 110.41 477.059 111.17 477.263C111.956 477.371 112.64 477.86 113.178 478.514C112.647 477.455 112.401 476.472 112.63 475.617C112.859 474.761 113.348 474.078 114.286 473.616C115.371 472.99 116.518 472.89 117.608 473.385C118.722 473.786 119.754 474.877 120.772 476.78C120.981 477.141 121.164 477.598 121.373 477.959C121.765 478.777 122.018 479.354 122.182 479.5L123.34 481.644L122.522 482.036L121.636 480.78L111.4 486.288ZM114.398 481.183L113.936 480.245C113.519 479.522 113.05 478.989 112.385 478.811C111.72 478.632 111.073 478.765 110.255 479.157C109.532 479.574 108.999 480.042 108.847 480.613C108.694 481.183 108.896 481.95 109.357 482.888C109.566 483.25 109.844 483.732 110.053 484.093L110.262 484.455L114.885 482.027C114.885 482.027 114.676 481.665 114.398 481.183ZM120.049 477.197C119.423 476.113 118.79 475.434 118.055 475.135C117.321 474.836 116.579 474.943 115.736 475.43C114.892 475.917 114.359 476.386 114.276 477.076C114.193 477.767 114.3 478.509 114.856 479.473C115.482 480.557 115.805 481.255 116.013 481.616L120.903 478.954C120.764 478.713 120.511 478.136 120.049 477.197Z" fill="black"/>
<path d="M102.899 472.398L101.976 470.521L111.589 460.874L111.273 459.771L112.091 459.379L114.26 463.831L113.442 464.223L112.582 462.872L110.424 464.84L112.776 469.748L115.648 469.296L115.149 467.736L115.967 467.344L117.857 471.314L117.039 471.705L116.387 470.716L102.899 472.398ZM105.063 470.024L103.731 471.195L105.455 470.842L111.698 469.969L109.6 465.638L105.063 470.024Z" fill="black"/>
<path d="M110.276 456.652C110.091 457.723 109.595 458.812 108.865 459.635C108.136 460.458 107 461.274 105.726 461.85C104.451 462.425 103.183 462.595 101.992 462.479C100.801 462.364 99.6857 461.963 98.7422 461.303C97.7986 460.642 97.052 459.628 96.5464 458.473C96.1799 457.56 95.8643 456.457 95.5997 455.164L95.4674 454.517L98.6376 453.33L99.1432 454.484L97.1389 455.882C97.088 456.072 97.0811 456.478 97.1693 456.909C97.2576 457.34 97.4153 457.891 97.6681 458.468C97.9905 459.166 98.4334 459.794 99.1427 460.188C99.8521 460.582 100.612 460.785 101.544 460.729C102.476 460.673 103.553 460.453 104.707 459.947C105.741 459.511 106.705 458.955 107.504 458.252C108.304 457.55 108.793 456.866 109.022 456.01C109.346 455.181 109.265 454.344 108.873 453.526C108.62 452.949 108.342 452.467 108.107 452.2C107.873 451.934 107.639 451.667 107.259 451.566L105.231 451.531L104.915 450.428L107.527 449.804C107.666 450.045 107.875 450.407 108.179 450.793C108.483 451.18 108.812 451.472 109.02 451.834C109.229 452.195 109.507 452.677 109.76 453.254C110.266 454.408 110.461 455.581 110.276 456.652Z" fill="black"/>
<path d="M94.0851 444.47C93.0143 444.285 92.0198 443.815 91.2664 443.206C90.5129 442.597 89.9309 441.728 89.5899 440.72C89.1793 439.591 89.0538 438.539 89.3339 437.493C89.614 436.448 90.0587 435.549 90.8581 434.846C91.6829 434.049 92.6469 433.492 93.896 433.012C95.3606 432.488 96.6284 432.318 97.8452 432.338C99.0365 432.454 100.151 432.855 101 433.489C101.848 434.124 102.525 435.019 102.961 436.052C103.372 437.181 103.472 438.328 103.287 439.399C103.102 440.47 102.562 441.343 101.737 442.141C100.913 442.939 99.9231 443.59 98.674 444.07L99.748 446.905L104.839 445.009L104.461 443.38L105.349 443.109L107.105 447.959L106.217 448.231L105.477 446.81L94.6225 450.828L94.9313 452.336L94.0437 452.608L92.2621 447.853L93.1497 447.581L93.8896 449.002L98.6449 447.22L97.5709 444.386C96.3727 444.676 95.1305 444.751 94.0851 444.47ZM92.9465 442.638C94.182 442.969 95.7602 442.78 97.7069 441.978C99.4125 441.314 100.643 440.524 101.424 439.511C102.204 438.497 102.389 437.427 101.979 436.298C101.568 435.169 100.72 434.535 99.5794 434.229C98.439 433.924 96.8352 434.207 94.9141 434.914C93.2085 435.578 91.978 436.368 91.2228 437.287C90.442 438.3 90.2824 439.275 90.693 440.404C90.9831 441.602 91.8061 442.332 92.9465 442.638Z" fill="black"/>
<path d="M92.2915 423.415C92.7803 422.731 93.4151 421.883 94.2908 420.895C94.8747 420.237 95.3126 419.743 95.63 419.319C95.9219 418.989 95.9983 418.704 96.0492 418.514L96.0374 417.798L96.925 417.527L97.6511 419.758C97.7903 419.999 97.5679 420.449 97.2505 420.873C96.9077 421.393 96.3238 422.051 95.499 422.849C94.6232 423.836 93.9189 424.564 93.4555 425.153C92.9922 425.742 92.8648 426.217 92.9785 426.553L93.2941 427.656L98.4041 426.072L98.1463 424.373L99.0339 424.101L100.574 428.996L99.6868 429.267L99.042 427.872L87.9344 431.313L88.1481 432.796L87.2605 433.068L85.7896 428.294L86.6772 428.022L87.322 429.417L92.432 427.833L91.9331 426.273L85.6423 424.282L85.9255 425.885L85.038 426.157L83.6807 421.719L84.5683 421.448L85.2385 422.748L91.6685 424.98C91.5549 424.644 91.8281 424.004 92.2915 423.415Z" fill="black"/>
<path d="M95.2807 414.539C94.9056 415.559 94.2708 416.408 93.3764 417.085C92.482 417.762 91.3025 418.363 89.9838 418.722C88.5701 419.056 87.3279 419.131 86.162 418.92C84.9961 418.71 84.0271 418.145 83.2041 417.415C82.3811 416.685 81.8246 415.721 81.5345 414.523C81.017 412.653 81.2344 411.081 82.212 409.714C83.1642 408.441 84.6356 407.511 86.7214 406.949C88.1351 406.615 89.4723 406.566 90.6382 406.777C91.8041 406.987 92.8681 407.578 93.6911 408.308C94.5141 409.037 95.0707 410.001 95.3608 411.2C95.6509 412.398 95.6559 413.52 95.2807 414.539ZM84.6247 416.675C85.8346 417.101 87.3875 417.008 89.3527 416.516C91.1975 416.094 92.5229 415.328 93.3732 414.436C94.2235 413.543 94.5291 412.403 94.2136 411.3C93.9235 410.102 93.1005 409.372 91.8905 408.946C90.6805 408.52 89.0326 408.587 87.0674 409.079C85.2226 409.502 83.8972 410.267 83.0469 411.16C82.1965 412.052 81.9164 413.097 82.2065 414.296C82.7122 415.45 83.5097 416.275 84.6247 416.675Z" fill="black"/>
<path d="M80.4305 404.958L80.5237 406.511L79.6616 406.688L79.1069 404.196C79.0187 403.765 78.8609 403.214 78.7031 402.662C78.5454 402.11 78.3621 401.654 78.3434 401.343C77.9906 399.619 78.0111 398.402 78.3353 397.573C78.6595 396.743 79.408 396.23 80.3906 395.984C81.2527 395.808 82.0384 395.917 82.7732 396.215C83.4826 396.609 84.046 397.167 84.4379 397.985C84.1478 396.787 84.1869 395.881 84.6062 395.077C85.0254 394.272 85.7739 393.76 86.731 393.609C87.9292 393.319 89.0951 393.529 90.0131 394.285C90.9566 394.945 91.6964 396.365 92.0934 398.305C92.1816 398.736 92.2698 399.167 92.263 399.573C92.4139 400.53 92.5717 401.082 92.6158 401.297L93.196 403.693L92.3339 403.87L91.8096 402.405L80.4305 404.958ZM84.6753 400.901L84.4293 399.918C84.2528 399.056 83.905 398.454 83.2907 398.085C82.7714 397.743 81.9857 397.634 81.0981 397.905C80.236 398.082 79.6335 398.43 79.3857 398.974C79.1378 399.519 79.0291 400.305 79.2497 401.383C79.3379 401.814 79.4261 402.245 79.6093 402.701L79.723 403.037L84.8008 401.953C84.8517 401.763 84.738 401.427 84.6753 400.901ZM91.1108 398.551C90.8207 397.353 90.4287 396.535 89.7448 396.046C89.156 395.583 88.3702 395.474 87.3876 395.72C86.4305 395.871 85.8025 396.314 85.5547 396.859C85.2118 397.378 85.1727 398.284 85.3932 399.362C85.6833 400.56 85.8598 401.422 85.9734 401.758L91.3872 400.56C91.4636 400.275 91.3313 399.629 91.1108 398.551Z" fill="black"/>
<path d="M73.9688 376.235L74.926 376.084L75.4248 377.643L86.9107 375.832L86.8684 374.089L87.8256 373.938L88.6686 379.155L87.7114 379.306L87.3076 377.772L75.8217 379.583L76.7716 385.542L88.3525 383.756L88.3102 382.013L89.2674 381.862L90.0154 387.053L89.0582 387.204L88.629 385.765L77.143 387.576L77.1158 389.199L76.1586 389.35L73.9688 376.235Z" fill="black"/>
<path d="M86.6007 370.147C86.156 371.046 85.3312 371.844 84.3672 372.4C83.4032 372.957 82.1795 373.342 80.7218 373.461C79.264 373.579 77.9776 373.438 76.8627 373.038C75.7477 372.637 74.8042 371.977 74.1271 371.082C73.4501 370.188 73.014 369.154 72.914 368.007C72.7071 366.118 73.14 364.503 74.2568 363.376C75.3736 362.249 76.9842 361.56 79.1836 361.335C80.6414 361.216 81.9277 361.357 83.0427 361.758C84.1576 362.158 85.1011 362.819 85.8732 363.739C86.5502 364.633 86.9863 365.667 87.0863 366.814C87.2305 368.177 87.0454 369.247 86.6007 370.147ZM75.7564 370.704C76.9154 371.32 78.4173 371.417 80.4962 371.261C82.3851 371.054 83.7292 370.6 84.7696 369.758C85.7845 369.011 86.2547 368.017 86.0851 366.749C85.985 365.602 85.308 364.708 84.1489 364.091C82.9899 363.475 81.393 363.353 79.4091 363.534C77.5202 363.741 76.0811 364.17 75.1357 365.038C74.1208 365.784 73.7457 366.804 73.9153 368.072C73.9898 369.314 74.6669 370.209 75.7564 370.704Z" fill="black"/>
<path d="M80.6926 355.322C82.3846 355.47 83.7405 355.732 84.6399 356.176C85.0897 356.399 85.4188 356.691 85.653 356.957C85.8617 357.319 85.9754 357.655 86.0636 358.086C86.1009 358.707 86.0941 359.113 86.0177 359.398L84.5344 359.611C84.5158 359.301 84.5226 358.895 84.5108 358.179C84.4667 357.963 84.4226 357.748 84.258 357.602C84.0934 357.456 83.9288 357.31 83.6691 357.139C82.1554 356.326 79.082 356.011 74.5186 356.316L73.0608 356.435L73.0012 358.558L72.0695 358.614L71.3916 347.839L72.3233 347.783L72.6762 349.508L84.2876 348.748L84.3658 346.936L85.2975 346.88L85.7026 352.591L84.7709 352.647L84.469 350.732L72.8831 351.396L73.0813 355.218L74.7292 355.151C77.0677 355.166 79.0007 355.175 80.6926 355.322Z" fill="black"/>
<path d="M72.5239 344.374L72.3066 345.945L71.3749 346.001L71.1771 336.476L74.1182 336.143L74.1486 337.17L72.3735 337.713L72.3425 342.39L77.5712 342.263L77.4798 339.183L75.9084 338.966L75.8779 337.939L80.1749 337.868L80.2053 338.895L78.6016 339.178L78.5725 342.328L84.1117 342.182L83.7948 336.903L81.4003 335.955L81.7059 334.815L84.9439 335.275L85.128 345.612L84.1963 345.668L84.008 344.09L72.5239 344.374Z" fill="black"/>
<path d="M72.308 328.834L72.3739 332.009L76.2517 332.743L76.2312 333.959L71.2503 333.541L71.5178 321.9L76.5309 321.817L76.5105 323.034L72.5868 323.612L72.4372 326.831L84.1995 327.029L84.4119 324.336L85.3181 324.375L85.1512 331.46L84.245 331.421L84.0958 328.937L72.308 328.834Z" fill="black"/>
<path d="M79.7339 314.425L79.6948 315.331C79.9035 315.692 80.2327 315.984 80.847 316.353C81.3663 316.695 82.0757 317.089 82.9751 317.534C83.8745 317.979 84.4888 318.347 84.9385 318.569C85.3882 318.792 85.6224 319.058 85.5714 319.248L85.41 321.751L84.5038 321.712L84.3969 320.971C84.3528 320.755 84.1882 320.609 83.954 320.343C83.5994 320.146 83.1751 319.828 82.4912 319.339C81.6869 318.92 81.098 318.457 80.5788 318.114C80.0595 317.771 79.7557 317.384 79.547 317.023C79.2228 317.853 78.7595 318.441 78.011 318.954C77.288 319.371 76.521 319.573 75.5197 319.509C74.0178 319.412 73.0233 318.942 72.4668 317.978C71.9102 317.014 71.7406 315.746 71.863 314.149C71.8698 313.743 71.9716 313.363 72.0294 312.768C72.0871 312.172 72.2145 311.697 72.1958 311.386L72.4082 308.693L73.3144 308.732L73.4076 310.285L85.0172 311.053L85.2855 309.291L86.1917 309.331L85.8366 314.837L84.9303 314.798L84.9135 312.96L79.9072 312.638L79.7339 314.425ZM72.9611 312.712C72.8083 313.282 72.776 313.782 72.7692 314.188C72.7046 315.189 72.8115 315.931 73.2798 316.464C73.7482 316.997 74.3879 317.27 75.4842 317.36C76.4855 317.425 77.2526 317.223 77.8805 316.78C78.5085 316.337 78.7122 315.577 78.8718 314.601C78.9364 313.6 78.9941 313.004 78.9059 312.573L73.2089 312.167L72.9611 312.712Z" fill="black"/>
<path d="M73.9057 301.964L73.6611 305.158L77.4624 306.177L77.347 307.368L72.3729 306.545L73.6416 294.967L78.6479 295.29L78.5324 296.481L74.6156 296.654L74.1554 299.892L85.8277 301.186L86.3252 298.57L87.206 298.704L86.4179 305.826L85.5371 305.692L85.5781 303.259L73.9057 301.964Z" fill="black"/>
<path d="M88.03 288.026C87.3002 288.849 86.3107 289.5 85.2076 289.816C84.1045 290.131 82.7672 290.181 81.4113 289.919C80.0553 289.658 78.8453 289.232 77.9273 288.476C77.0092 287.721 76.2372 286.801 75.8266 285.673C75.416 284.544 75.3159 283.397 75.5519 282.136C75.7115 281.16 76.0171 280.02 76.5382 278.835L76.786 278.29L80.0681 278.966L79.8321 280.227L77.3731 280.281C77.2271 280.446 77.0557 280.705 76.8333 281.155C76.6364 281.51 76.4836 282.08 76.4259 282.676C76.3172 283.461 76.4241 284.203 76.7464 284.9C77.0688 285.598 77.6322 286.156 78.5061 286.696C79.2851 287.21 80.3304 287.49 81.5913 287.726C82.7572 287.937 83.7839 287.907 84.8361 287.781C85.7933 287.63 86.7063 287.264 87.3598 286.726C88.0132 286.188 88.407 285.478 88.5666 284.503C88.6498 283.812 88.6821 283.311 88.6634 283.001C88.6448 282.69 88.5311 282.354 88.3224 281.993L86.6695 280.939L86.9751 279.798L89.4901 280.676C89.4137 280.961 89.5274 281.297 89.5901 281.823C89.6783 282.254 89.646 282.755 89.7343 283.186C89.8225 283.617 89.6951 284.092 89.6119 284.783C89.2809 286.018 88.7853 287.108 88.03 288.026Z" fill="black"/>
<path d="M77.7963 270.718L78.6771 270.852L78.5038 272.639L87.6593 274.583L85.735 272.642L80.3813 266.012L79.9062 265.885L79.3783 267.475L78.4975 267.341L79.5365 262.323L80.4173 262.457L80.3204 263.959L91.6872 266.394L92.1896 264.898L93.0449 265.128L91.9804 270.241L91.1251 270.012L91.2729 268.32L81.9273 266.325L83.7821 268.146L89.2053 274.896L89.8706 275.074L90.424 273.389L91.3047 273.523L90.2402 278.636L89.3595 278.502L89.4818 276.905L78.115 274.47L77.638 275.87L76.7573 275.736L77.7963 270.718Z" fill="black"/>
<path d="M82.3768 250.963L87.1794 252.046L86.8484 253.281L83.0843 252.884L81.9198 256.85L93.3748 259.716L94.4052 256.63L95.2605 256.86L93.4711 263.918L92.6158 263.688L92.9605 261.642L81.6956 258.827L80.9963 260.677L80.141 260.448L82.3768 250.963Z" fill="black"/>
<path d="M84.3574 248.132L83.6903 249.482L82.835 249.252L84.3492 244.362L85.2045 244.591L84.9872 246.162L89.7829 247.651L91.6791 241.335L86.8833 239.846L86.2163 241.195L85.361 240.966L86.8497 236.17L87.705 236.399L87.5131 237.876L98.6252 241.261L99.1972 239.886L100.053 240.115L98.5638 244.911L97.7085 244.682L98.0209 243.136L92.845 241.545L90.9488 247.861L96.1247 249.452L96.7222 247.982L97.5775 248.212L96.0633 253.103L95.208 252.873L95.4949 251.422L84.3574 248.132Z" fill="black"/>
<path d="M88.8919 229.689L89.6167 227.744L103.268 227.735L103.859 226.671L104.688 226.996L103.035 231.645L102.205 231.321L102.518 229.775L99.5834 229.702L97.8028 234.827L100.089 236.56L100.781 235.116L101.611 235.44L100.18 239.64L99.3501 239.316L99.5606 238.15L88.8919 229.689ZM92.1621 229.649L90.4702 229.501L91.933 230.504L96.9288 234.287L98.5312 229.827L92.1621 229.649Z" fill="black"/>
<path d="M101.787 220.718C103.275 221.626 104.383 222.432 104.991 223.206C105.295 223.593 105.478 224.049 105.592 224.385C105.68 224.817 105.578 225.197 105.476 225.577C105.228 226.122 105.031 226.476 104.86 226.736L103.46 226.259C103.631 225.999 103.759 225.524 104.007 224.979C104.057 224.789 104.134 224.504 104.064 224.384C104.02 224.168 103.881 223.927 103.742 223.686C102.692 222.284 100.07 220.665 95.8255 219.018L94.4509 218.446L93.441 220.315L92.6111 219.991L96.6221 209.963L97.452 210.287L96.9936 211.998L107.756 216.308L108.595 214.699L109.424 215.023L107.282 220.357L106.452 220.033L106.962 218.132L96.1993 213.822L94.7564 217.306L96.3211 217.929C98.4746 219.015 100.299 219.81 101.787 220.718Z" fill="black"/>
<path d="M104.797 204.922C105.464 203.572 106.22 202.654 107.253 202.218C108.287 201.782 109.288 201.847 110.472 202.368C111.727 203.01 112.619 203.86 112.909 205.058C113.225 206.161 113.084 207.448 112.417 208.797C112.366 208.987 112.22 209.151 112.169 209.341C112.023 209.506 111.972 209.696 111.801 209.956C111.432 210.57 111.184 211.115 110.937 211.659L109.92 213.933L109.116 213.514L109.618 212.019L99.0338 207.044L98.1767 208.342L97.3723 207.923L99.5772 203.115L100.382 203.535L99.8027 205.315L103.685 207.17L104.797 204.922ZM104.8 191.987L105.604 192.406L105.051 194.091L115.54 199.04L116.448 197.552L117.253 197.971L114.902 202.944L114.097 202.524L114.651 200.839L104.162 195.89L103.254 197.378L102.449 196.959L104.8 191.987ZM110.971 209.631C111.117 209.467 111.219 209.087 111.415 208.732C111.86 207.833 111.899 206.926 111.602 206.134C111.305 205.341 110.647 204.757 109.653 204.287C108.753 203.843 107.847 203.803 107.175 204.031C106.477 204.353 105.919 204.917 105.474 205.816L104.705 207.545L110.412 210.195C110.653 210.056 110.825 209.796 110.971 209.631Z" fill="black"/>
<path d="M109.86 184.888L108.933 186.066L108.129 185.647L110.637 181.226L111.442 181.645L110.844 183.115L115.29 185.528L118.466 179.759L114.02 177.345L113.093 178.523L112.289 178.104L114.677 173.752L115.481 174.172L115.004 175.572L125.195 181.256L126.121 180.078L126.926 180.498L124.512 184.944L123.708 184.525L124.305 183.055L119.504 180.444L116.329 186.214L121.13 188.825L122.107 187.457L122.912 187.876L120.377 192.392L119.573 191.973L120.145 190.598L109.86 184.888Z" fill="black"/>
<path d="M118.284 167.894L119.363 166.147L132.726 169.116L133.481 168.198L134.26 168.712L131.612 172.892L130.833 172.377L131.526 170.933L128.675 170.169L125.804 174.799L127.652 177.025L128.7 175.778L129.478 176.292L127.148 180.048L126.369 179.534L126.865 178.444L118.284 167.894ZM121.376 168.519L119.76 168.086L120.956 169.324L125.076 174.094L127.578 170.079L121.376 168.519Z" fill="black"/>
<path d="M127.85 155.383L126.51 156.959L125.732 156.445L128.639 152.437L136.97 155.178L139.269 156.1L137.63 154.235L132.283 147.2L135.19 143.192L135.969 143.706L134.985 145.479L145.321 150.999L146.463 149.777L147.242 150.292L144.018 154.724L143.239 154.21L144.052 152.696L136.724 148.492L133.532 146.72L135.285 148.921L141.423 157.186L140.737 158.225L131.69 155.495L128.13 154.337L130.858 156.698L137.234 162.175L138.427 160.763L139.206 161.278L136.419 165.216L135.64 164.702L136.428 163.283L127.85 155.383Z" fill="black"/>
<path d="M139.557 137.538L140.801 135.936L153.756 140.426L154.581 139.628L155.335 140.237L152.263 144.1L151.509 143.49L152.366 142.192L149.687 141.168L146.297 145.455L147.904 147.821L149.021 146.694L149.774 147.303L147.02 150.741L146.266 150.132L146.857 149.068L139.557 137.538ZM142.573 138.447L141.008 137.825L142.059 139.226L145.551 144.44L148.477 140.742L142.573 138.447Z" fill="black"/>
<path d="M147.101 130.29L145.941 131.201L145.187 130.592L146.818 128.686C147.11 128.357 147.402 128.028 147.599 127.673C148.037 127.179 148.38 126.66 148.818 126.166C149.985 124.85 151.121 124.033 152.078 123.882C153.035 123.731 154.055 124.107 155.042 124.982C155.796 125.592 156.308 126.34 156.58 127.228C156.851 128.115 156.838 128.926 156.608 129.782C156.379 130.637 155.935 131.537 155.23 132.264C154.964 132.499 154.767 132.853 154.5 133.088C154.234 133.322 154.088 133.486 154.063 133.581L157.215 136.26L159.011 134.5L159.67 135.084L155.678 139.718L155.019 139.134L155.876 137.836L147.101 130.29ZM154.572 131.681C155.181 130.927 155.505 130.097 155.424 129.261C155.343 128.424 154.856 127.581 153.798 126.584C152.975 125.854 152.241 125.556 151.499 125.663C150.757 125.769 150.129 126.212 149.279 127.105C148.987 127.434 148.79 127.789 148.498 128.118C148.327 128.378 148.206 128.447 148.181 128.542L153.239 132.852C153.576 132.738 153.988 132.339 154.572 131.681Z" fill="black"/>
<path d="M164.938 128.347C163.835 128.662 162.738 128.572 161.598 128.267C160.483 127.866 159.419 127.275 158.362 126.279C157.4 125.308 156.653 124.293 156.268 123.07C155.857 121.941 155.878 120.724 156.088 119.558C156.394 118.418 156.89 117.329 157.835 116.461C158.539 115.733 159.339 115.031 160.569 114.24L161.077 113.867L163.374 116.316L162.524 117.209L160.421 115.932C160.206 115.976 159.87 116.09 159.508 116.299C159.147 116.507 158.734 116.906 158.322 117.305C157.764 117.868 157.465 118.603 157.382 119.294C157.273 120.08 157.475 120.847 157.841 121.76C158.233 122.578 158.91 123.472 159.803 124.322C160.6 125.147 161.569 125.712 162.469 126.157C163.368 126.602 164.249 126.736 165.086 126.655C165.922 126.573 166.645 126.156 167.324 125.523C167.762 125.029 168.079 124.605 168.251 124.345C168.422 124.086 168.524 123.705 168.506 123.395L167.678 121.543L168.597 120.771L170.255 122.947C170.109 123.112 169.912 123.466 169.665 124.011C169.442 124.461 169.245 124.815 169.048 125.17C168.852 125.525 168.534 125.949 168.096 126.443C167.03 127.379 165.946 128.006 164.938 128.347Z" fill="black"/>
<path d="M176.007 98.8203L176.64 99.4992L175.447 100.911L181.725 107.89L181.342 105.139L180.959 96.6841L180.655 96.2972L179.279 97.2525L178.646 96.5736L182.522 93.1306L183.155 93.8095L182.229 94.9872L189.982 103.685L191.238 102.8L191.871 103.478L187.994 106.921L187.361 106.243L188.504 105.021L182.155 97.9214L182.59 100.482L182.922 109.127L183.39 109.66L184.792 108.61L185.425 109.289L181.523 112.827L180.89 112.148L181.912 110.996L174.158 102.297L172.928 103.088L172.295 102.409L176.007 98.8203Z" fill="black"/>
<path d="M185.688 90.8213C186.005 90.397 186.323 89.9728 186.614 89.6436C186.906 89.3144 187.173 89.0802 187.439 88.846C188.626 87.8397 189.78 87.3341 190.737 87.1832C191.694 87.0322 192.498 87.4515 193.201 88.2508C193.808 89.0247 194.105 89.8173 193.971 90.6981C193.837 91.5788 193.538 92.3136 192.929 93.0671C193.823 92.39 194.736 92.0236 195.617 92.1577C196.523 92.1968 197.233 92.5906 197.84 93.3645C198.682 94.4049 198.997 95.508 198.812 96.5788C198.627 97.6497 197.821 98.7578 196.394 99.9032C195.861 100.372 195.258 100.719 194.776 100.998C194.294 101.276 193.838 101.459 193.502 101.573C193.166 101.687 192.95 101.731 192.925 101.826L191.109 99.0983L191.883 98.4908L193.814 100.027C194.461 99.8945 195.279 99.5026 196.078 98.8001C196.732 98.2621 197.1 97.6478 197.063 97.0267C197.051 96.3105 196.823 95.6385 196.121 94.8391C195.678 94.2111 195.064 93.8428 194.373 93.7596C193.682 93.6764 192.89 93.9733 191.995 94.6504L190.955 95.492L190.253 94.6926L191.052 93.9901C191.439 93.6864 191.756 93.2622 191.979 92.8125C192.201 92.3627 192.328 91.8876 192.266 91.3615C192.203 90.8354 191.925 90.3534 191.551 89.8459C191.013 89.1925 190.494 88.8497 189.873 88.887C189.252 88.9242 188.675 89.177 188.047 89.6199C187.634 90.0187 187.342 90.3479 187.05 90.6771C186.759 91.0063 186.777 91.3169 186.821 91.5324L187.631 93.0734L186.711 93.8455L184.742 91.6884C184.983 91.5492 185.275 91.22 185.688 90.8213Z" fill="black"/>
<path d="M198.875 81.5207L197.454 82.2605L196.942 81.5121L198.972 80.0188C199.333 79.8101 199.745 79.4113 200.253 79.038C200.665 78.6393 201.052 78.3355 201.293 78.1964C202.695 77.146 203.849 76.6404 204.755 76.6795C205.662 76.7186 206.466 77.1379 207.074 77.9118C207.586 78.6602 207.788 79.4273 207.774 80.2385C207.761 81.0497 207.367 81.7591 206.783 82.4175C207.703 81.6454 208.685 81.3994 209.592 81.4385C210.498 81.4776 211.277 81.9919 211.789 82.7403C212.536 83.7552 212.756 84.8329 212.546 85.9988C212.335 87.1646 211.314 88.3169 209.645 89.6014C209.258 89.9051 208.897 90.1139 208.535 90.3226C207.692 90.8095 207.279 91.2083 207.064 91.2524L205.034 92.7457L204.522 91.9972L205.613 90.9655L198.875 81.5207ZM204.278 83.7834L205.147 83.2014C205.895 82.6889 206.264 82.0746 206.321 81.4789C206.379 80.8833 206.177 80.1162 205.665 79.3677C205.152 78.6193 204.633 78.2764 204.037 78.2187C203.442 78.1609 202.649 78.4578 201.875 79.0653C201.488 79.3691 201.127 79.5778 200.835 79.907L200.568 80.1412L203.625 84.3213C203.529 84.2958 203.891 84.0871 204.278 83.7834ZM209.063 88.7325C210.078 87.9858 210.687 87.2324 210.796 86.4466C210.905 85.6609 210.703 84.8938 210.19 84.1454C209.583 83.3715 208.994 82.9081 208.398 82.8504C207.708 82.7671 207.01 83.0895 206.116 83.7666C205.101 84.5132 204.473 84.9561 204.207 85.1902L207.471 89.7319C207.687 89.6878 208.194 89.3145 209.063 88.7325Z" fill="black"/>
<path d="M211.436 71.1356L213.173 69.9716L224.109 78.1982L225.168 77.6671L225.68 78.4156L221.576 81.1865L221.064 80.4381L222.25 79.4318L219.99 77.6039L215.404 80.6531L216.193 83.411L217.614 82.6711L218.126 83.4196L214.409 85.8868L213.897 85.1384L214.722 84.3408L211.436 71.1356ZM214.102 72.9704L212.759 71.8977L213.328 73.5779L215.063 79.6451L219.021 77.0387L214.102 72.9704Z" fill="black"/>
<path d="M228.009 76.1876C226.887 76.1926 225.867 75.8174 224.803 75.2267C223.86 74.5665 222.992 73.6212 222.202 72.3907C221.506 71.1857 221.121 69.9621 221.021 68.8149C220.921 67.6677 221.252 66.4322 221.817 65.4632C222.408 64.3992 223.233 63.6017 224.343 62.8805C225.186 62.3935 226.22 61.9575 227.564 61.5028L228.141 61.25L229.69 64.2115L228.605 64.8376L226.941 63.0674C226.751 63.0165 226.415 63.1302 225.984 63.2184C225.553 63.3066 225.071 63.5849 224.589 63.8632C223.866 64.2806 223.402 64.8694 223.129 65.5092C222.83 66.244 222.722 67.0297 222.872 67.9869C223.023 68.9441 223.46 69.9776 224.111 70.967C224.763 71.9565 225.44 72.8509 226.193 73.4602C226.947 74.0695 227.751 74.4888 228.606 74.7179C229.462 74.9471 230.229 74.7452 231.072 74.2583C231.675 73.9104 232.062 73.6067 232.233 73.347C232.5 73.1129 232.696 72.7582 232.773 72.4731L232.496 70.4637L233.555 69.9326L234.516 72.4308C234.275 72.5699 234.008 72.8041 233.691 73.2284C233.399 73.5576 233.107 73.8868 232.72 74.1905C232.428 74.5197 231.946 74.798 231.464 75.0763C230.329 75.8925 229.131 76.1826 228.009 76.1876Z" fill="black"/>
<path d="M237.758 58.4286C237.848 57.3323 238.128 56.2869 238.668 55.413C239.208 54.539 239.887 53.9061 240.851 53.3495C241.935 52.7234 243.013 52.5028 244.014 52.5674C245.015 52.632 246.035 53.0071 246.858 53.737C247.681 54.4668 248.453 55.3866 249.175 56.4966C249.94 57.8221 250.299 59.1407 250.374 60.383C250.449 61.6252 250.264 62.6961 249.698 63.6651C249.133 64.634 248.429 65.362 247.465 65.9186C246.38 66.5447 245.303 66.7652 244.206 66.6752C243.205 66.6106 242.185 66.2355 241.337 65.6007C240.488 64.9659 239.621 64.0206 239.02 62.8411L236.395 64.2765L238.988 69.0455L240.478 68.4262L240.87 69.2443L236.342 71.6978L235.95 70.8798L237.206 69.9941L231.698 59.7585L230.233 60.2828L229.746 59.4393L234.154 57.0553L234.641 57.8988L233.385 58.7846L235.769 63.1921L238.489 61.782C237.958 60.723 237.738 59.6454 237.758 58.4286ZM239.522 57.1695C239.381 58.4559 239.784 59.99 240.828 61.7975C241.732 63.364 242.644 64.5249 243.803 65.141C244.962 65.7571 245.963 65.8217 247.142 65.221C248.201 64.69 248.767 63.721 248.787 62.5042C248.808 61.2874 248.404 59.7532 247.455 57.9712C246.551 56.4047 245.64 55.2438 244.576 54.6532C243.512 54.0625 242.415 53.9725 241.356 54.5036C240.297 55.0347 239.663 55.8831 239.522 57.1695Z" fill="black"/>
<path d="M258.481 53.694C259.191 54.0878 260.065 54.6275 261.224 55.2437C262.003 55.7579 262.522 56.1008 262.972 56.3231C263.421 56.5455 263.611 56.5964 263.827 56.5523L264.569 56.4455L264.961 57.2635L262.868 58.2306C262.627 58.3698 262.247 58.2679 261.702 58.0201C261.157 57.7723 260.474 57.2835 259.53 56.6232C258.517 55.8425 257.643 55.3027 257.029 54.9344C256.414 54.5661 255.914 54.5338 255.578 54.6475L254.519 55.1786L256.801 59.9662L258.361 59.4674L258.752 60.2854L254.085 62.498L253.693 61.68L255.019 60.9147L250.088 50.4264L248.649 50.8556L248.257 50.0376L252.804 47.8946L253.196 48.7126L251.845 49.5729L254.101 54.4556L255.522 53.7158L256.658 47.1958L255.098 47.6946L254.706 46.8765L258.891 44.9422L259.283 45.7603L258.053 46.551L256.676 53.2102C257.081 53.217 257.747 53.3952 258.481 53.694Z" fill="black"/>
<path d="M267.688 55.4478C266.617 55.2627 265.743 54.723 264.946 53.8982C264.148 53.0733 263.401 52.0584 262.852 50.6888C262.302 49.3192 262.012 48.1211 262.127 46.9298C262.243 45.7384 262.523 44.693 263.183 43.7495C263.843 42.806 264.738 42.129 265.771 41.6929C267.597 40.9599 269.125 40.9618 270.569 41.6543C272.013 42.3468 273.159 43.7741 273.961 45.7208C274.511 47.0903 274.775 48.3835 274.66 49.5748C274.544 50.7662 274.239 51.9066 273.579 52.8501C272.918 53.7936 272.024 54.4707 270.99 54.9067C269.811 55.5074 268.759 55.6329 267.688 55.4478ZM264.088 45.316C263.852 46.5769 264.16 48.0856 264.868 50.0068C265.626 51.7378 266.512 52.9938 267.551 53.6795C268.564 54.4602 269.66 54.5502 270.814 54.0446C271.943 53.634 272.603 52.6905 272.839 51.4296C273.075 50.1687 272.792 48.5649 271.964 46.7134C271.205 44.9823 270.319 43.7264 269.281 43.0407C268.242 42.355 267.171 42.1699 266.017 42.6755C264.958 43.2066 264.324 44.0551 264.088 45.316Z" fill="black"/>
<path d="M275.046 39.3906L273.537 39.6993L273.266 38.8117L275.644 37.921C276.075 37.8328 276.557 37.5545 277.134 37.3017C277.711 37.0489 278.072 36.8402 278.383 36.8215C279.968 36.2277 281.236 36.0581 282.091 36.2873C282.946 36.5164 283.605 37.1003 283.946 38.1084C284.243 38.9009 284.324 39.7376 284.025 40.4724C283.727 41.2072 283.238 41.8911 282.515 42.3085C283.643 41.8979 284.575 41.842 285.43 42.0712C286.286 42.3003 286.919 42.9792 287.26 43.9873C287.67 45.1159 287.65 46.3327 287.085 47.3017C286.494 48.3657 285.238 49.2514 283.317 49.959C282.86 50.1422 282.524 50.2559 282.093 50.3441C281.206 50.6155 280.629 50.8683 280.413 50.9125L278.035 51.8032L277.738 51.0107L279.159 50.2709L275.046 39.3906ZM279.662 43.0719L280.67 42.7309C281.463 42.434 281.995 41.9656 282.269 41.3259C282.542 40.6861 282.53 39.9699 282.138 39.1519C281.841 38.3594 281.373 37.8264 280.828 37.5786C280.284 37.3308 279.447 37.4122 278.439 37.7532C277.982 37.9365 277.621 38.1452 277.164 38.3284L276.803 38.5371L278.654 43.413C278.774 43.3434 279.11 43.2297 279.662 43.0719ZM282.83 49.1155C283.958 48.7049 284.732 48.0974 285.126 47.388C285.52 46.6787 285.508 45.9625 285.167 44.9545C284.801 44.0414 284.332 43.5085 283.787 43.2607C283.148 42.9874 282.311 43.0688 281.277 43.5048C280.054 43.8899 279.356 44.2123 279.02 44.326L280.985 49.5379C281.245 49.7093 281.917 49.482 282.83 49.1155Z" fill="black"/>
<path d="M302.57 29.0426L302.842 29.9302L301.421 30.67L304.767 41.7522L306.491 41.3993L306.762 42.2869L301.773 43.802L301.501 42.9144L302.897 42.2696L299.481 31.067L293.725 32.7839L297.14 43.9865L298.864 43.6337L299.136 44.5213L294.146 46.0363L293.875 45.1487L295.27 44.504L291.924 33.4218L290.32 33.7051L290.049 32.8175L302.57 29.0426Z" fill="black"/>
<path d="M310.37 40.6055C309.351 40.2303 308.502 39.5955 307.825 38.7011C307.148 37.8067 306.642 36.6527 306.308 35.239C305.974 33.8253 305.899 32.583 306.135 31.3221C306.346 30.1563 306.911 29.1873 307.641 28.3643C308.371 27.5413 309.335 26.9847 310.533 26.6946C312.403 26.1772 313.975 26.3945 315.342 27.3722C316.615 28.3243 317.545 29.7958 318.081 31.9765C318.415 33.3902 318.464 34.7275 318.254 35.8934C318.018 37.1543 317.453 38.1233 316.628 38.9208C315.803 39.7184 314.839 40.2749 313.736 40.5905C312.417 40.9501 311.39 40.9806 310.37 40.6055ZM308.235 29.9494C307.809 31.1594 307.902 32.7122 308.394 34.6774C308.816 36.5222 309.582 37.8477 310.474 38.698C311.367 39.5483 312.507 39.8539 313.61 39.5383C314.808 39.2482 315.513 38.5202 315.964 37.2152C316.39 36.0052 316.323 34.3574 315.831 32.3921C315.408 30.5474 314.643 29.2219 313.75 28.3716C312.858 27.5213 311.812 27.2412 310.614 27.5313C309.46 28.0369 308.635 28.8344 308.235 29.9494Z" fill="black"/>
<path d="M324.297 32.7255C324.435 34.4938 324.294 35.7802 323.919 36.8001C323.791 37.2753 323.474 37.6995 323.207 37.9337C322.941 38.1679 322.579 38.3766 322.148 38.4648C321.597 38.6226 321.096 38.5903 320.881 38.6344L320.451 37.1952C320.762 37.1766 321.193 37.0884 321.84 36.9561C322.055 36.912 322.271 36.8678 322.417 36.7032C322.563 36.5386 322.709 36.374 322.785 36.0889C323.433 34.4293 323.221 31.4186 322.295 26.8925L321.961 25.4788L319.762 25.7043L319.585 24.8422L330.146 22.681L330.323 23.5432L328.643 24.1115L330.98 35.5347L332.869 35.3278L333.045 36.1899L327.442 37.3367L327.265 36.4746L329.161 35.8621L326.823 24.4389L323.159 25.1887L323.538 26.8179C323.858 29.0428 324.135 31.0522 324.297 32.7255Z" fill="black"/>
<path d="M333.91 23.0786L332.383 23.0767L332.232 22.1196L341.613 20.5591L342.377 23.4119L341.325 23.5374L340.471 21.7809L335.926 22.3965L336.769 27.6134L339.882 27.0214L339.884 25.494L340.936 25.3685L341.628 29.6282L340.576 29.7537L340.077 28.1941L336.99 28.691L337.852 34.2185L343.024 33.1599L343.591 30.6636L344.757 30.8741L344.798 34.1444L334.579 35.7863L334.403 34.9242L335.937 34.5204L333.91 23.0786Z" fill="black"/>
<path d="M349.32 20.6887L346.138 21.1602L346 25.0957L344.733 25.2653L344.434 20.2962L356.008 18.9158L356.833 23.8221L355.686 23.9221L354.581 20.0612L351.355 20.3172L352.805 32.0118L355.479 31.9136L355.535 32.8453L348.481 33.7051L348.425 32.7734L350.796 32.2883L349.32 20.6887Z" fill="black"/>
<path d="M364.6 26.0051L363.668 26.061C363.402 26.2952 363.084 26.7194 362.836 27.2642C362.563 27.904 362.264 28.6388 362.01 29.5891C361.66 30.514 361.482 31.1792 361.26 31.6289C361.037 32.0786 360.866 32.3382 360.65 32.3824L358.14 32.6265L358.084 31.6948L358.756 31.4675C358.972 31.4234 359.118 31.2588 359.315 30.9041C359.512 30.5494 359.759 30.0047 360.058 29.2699C360.382 28.44 360.776 27.7307 361.024 27.186C361.367 26.6667 361.684 26.2425 362.046 26.0337C361.165 25.8996 360.456 25.5058 359.918 24.8524C359.38 24.199 359.083 23.4064 359.027 22.4747C358.908 21.0169 359.309 19.902 360.083 19.2945C360.977 18.6175 362.201 18.2323 363.849 18.1646C364.159 18.1459 364.685 18.0832 365.281 18.1409C365.902 18.1037 366.308 18.1105 366.618 18.0918L369.318 17.8986L369.374 18.8303L367.866 19.139L368.771 30.5859L370.488 30.6386L370.544 31.5703L365.024 32.0263L364.968 31.0947L366.787 30.7673L366.394 25.7728L364.6 26.0051ZM365.362 18.9776C364.767 18.9199 364.336 19.0081 363.835 18.9758C362.903 19.0317 362.111 19.3286 361.698 19.7274C361.165 20.1957 360.962 20.956 361.087 22.0082C361.118 23.0349 361.535 23.7579 362.003 24.2908C362.592 24.7542 363.353 24.9579 364.284 24.902C365.311 24.8715 365.958 24.7392 366.268 24.7206L365.863 19.0099L365.362 18.9776Z" fill="black"/>
<path d="M376.086 18.4898L372.86 18.7458L372.317 22.6745L371.075 22.749L371.207 17.6918L382.837 17.2431L383.231 22.2376L382.109 22.2426L381.315 18.363L378.045 18.4034L378.443 30.2236L381.066 30.3154L381.122 31.2471L374.03 31.4858L373.974 30.5541L376.389 30.2845L376.086 18.4898Z" fill="black"/>
<path d="M391.922 30.4743C390.979 29.8141 390.276 29.0147 389.745 27.9557C389.214 26.8967 389.045 25.629 389.021 24.1966C389.092 22.7898 389.423 21.5543 390.014 20.4903C390.605 19.4263 391.43 18.6287 392.489 18.0977C393.548 17.5666 394.651 17.251 395.963 17.2969C396.869 17.3361 398.06 17.4516 399.391 17.8081L399.961 17.9608L399.665 21.3448L398.448 21.3243L398.058 18.9789C397.894 18.833 397.634 18.6615 397.159 18.5342C396.684 18.4069 396.183 18.3746 395.587 18.3168C394.776 18.3032 394.104 18.5305 393.476 18.9734C392.848 19.4163 392.359 20.1002 391.94 20.9046C391.59 21.8294 391.336 22.7798 391.29 24.0916C391.269 25.3084 391.395 26.3606 391.666 27.2482C391.938 28.1358 392.425 28.9792 393.083 29.5631C393.742 30.1469 394.476 30.4457 395.383 30.4848C396.099 30.473 396.504 30.4798 396.935 30.3916C397.272 30.2779 397.608 30.1643 397.874 29.9301L398.668 28.1058L399.834 28.3163L399.337 30.9332C399.026 30.9518 398.69 31.0655 398.164 31.1282C397.733 31.2165 397.277 31.3997 396.871 31.3929C396.44 31.4811 395.939 31.4488 395.318 31.4861C394.006 31.4401 392.866 31.1346 391.922 30.4743Z" fill="black"/>
<path d="M407.528 17.8494L407.489 18.7556L405.625 18.8674L404.942 28.2589L406.65 26.0682L412.481 19.8896L412.514 19.389L410.873 19.0512L410.912 18.1449L416.013 18.4933L415.974 19.3995L414.516 19.5182L413.748 31.1277L415.294 31.4401L415.255 32.3464L410.059 31.9726L410.098 31.0663L411.746 30.9986L412.359 21.4866L410.798 23.5128L404.845 29.7608L404.762 30.4515L406.524 30.7198L406.485 31.6261L401.193 31.2268L401.232 30.3206L402.785 30.2274L403.553 18.6178L402.102 18.3308L402.141 17.4246L407.528 17.8494Z" fill="black"/>
<path d="M427.806 19.7177L427.414 24.6036L426.127 24.4626L426.024 20.6662L421.905 20.0719L420.586 31.8393L423.798 32.3945L423.664 33.2752L416.351 32.4363L416.486 31.5555L418.514 31.5896L419.757 20.1074L417.856 19.5981L417.99 18.7173L427.806 19.7177Z" fill="black"/>
<path d="M430.954 21.2744L429.554 20.7974L429.688 19.9167L434.688 20.6451L434.553 21.5259L432.931 21.4986L432.203 26.4981L438.653 27.5135L439.381 22.514L437.886 22.0115L438.021 21.1308L443.02 21.8592L442.886 22.74L441.359 22.7382L439.615 34.1882L441.04 34.5701L440.906 35.4509L435.907 34.7224L436.041 33.8417L437.568 33.8435L438.398 28.4638L431.948 27.4484L431.118 32.8281L432.733 33.261L432.599 34.1417L427.504 33.3878L427.639 32.507L429.166 32.5089L430.954 21.2744Z" fill="black"/>
<path d="M449.774 23.2616L451.795 23.7013L453.668 37.2407L454.783 37.6413L454.649 38.5221L449.821 37.534L449.955 36.6532L451.552 36.7755L451.219 33.8345L445.916 32.719L444.512 35.2967L446.007 35.7992L445.873 36.68L441.52 35.8192L441.654 34.9384L442.871 34.9589L449.774 23.2616ZM450.366 26.3741L450.203 24.7008L449.485 26.2399L446.481 31.75L451.119 32.6872L450.366 26.3741Z" fill="black"/>
<path d="M460.465 34.682C459.842 36.2466 459.105 37.4753 458.401 38.2032C457.988 38.602 457.627 38.8107 457.291 38.9244C456.955 39.0381 456.549 39.0312 456.074 38.9039C455.504 38.7511 455.029 38.6238 454.769 38.4524L454.961 36.976C455.246 37.0523 455.721 37.1797 456.292 37.3325C456.482 37.3834 456.697 37.3393 456.913 37.2952C457.128 37.2511 457.274 37.0865 457.541 36.8523C458.778 35.656 460.042 32.8372 461.144 28.3452L461.526 26.9197L459.53 26.3849L459.785 25.4346L470.29 28.0456L470.035 28.9959L468.248 28.8227L465.433 40.0876L467.188 40.7615L466.959 41.6168L461.327 40.2094L461.556 39.3541L463.507 39.6733L466.322 28.4084L462.59 27.5104L462.157 29.1259C461.718 31.1471 461.088 33.1173 460.465 34.682Z" fill="black"/>
<path d="M476.536 35.5251C477.936 36.0021 478.975 36.6878 479.557 37.5567C480.139 38.4257 480.239 39.5729 479.813 40.7829C479.336 42.1829 478.58 43.101 477.547 43.5371C476.393 44.0427 475.176 44.0222 473.75 43.6402C473.56 43.5893 473.37 43.5384 473.18 43.4875C472.99 43.4365 472.8 43.3856 472.541 43.2142C471.901 42.9409 471.235 42.7626 470.691 42.5148L468.245 41.7577L468.474 40.9024L470.021 41.2148L473.405 30.1027L472.056 29.4356L472.285 28.5803L477.366 30.1455L477.137 31.0008L475.281 30.707L473.97 34.8376L476.536 35.5251ZM472.7 42.2384C472.89 42.2893 473.245 42.4862 473.625 42.588C474.67 42.8681 475.482 42.8818 476.205 42.4644C476.927 42.047 477.416 41.3631 477.696 40.3177C477.977 39.2724 477.965 38.5562 477.547 37.8332C477.199 37.2307 476.516 36.7419 475.496 36.3668L473.69 35.8829L471.87 41.9142C472.25 42.016 472.51 42.1874 472.7 42.2384ZM489.334 33.7596L489.105 34.6149L487.343 34.3466L483.958 45.4587L485.592 46.2021L485.363 47.0574L480.092 45.4414L480.321 44.5861L482.058 44.9494L485.442 33.8373L483.808 33.0938L484.037 32.2385L489.334 33.7596Z" fill="black"/>
<path d="M497.023 37.7552L495.699 36.9931L496.024 36.1633L500.743 37.9371L500.419 38.7669L498.873 38.4545L497.099 43.1739L503.288 45.5453L505.062 40.8259L503.738 40.0638L504.062 39.2339L508.782 41.0078L508.457 41.8376L507.007 41.5507L502.861 52.4591L504.211 53.1262L503.886 53.956L499.167 52.1822L499.491 51.3523L501.012 51.7598L502.982 46.6857L496.793 44.3143L494.823 49.3884L496.241 50.176L495.917 51.0058L491.128 49.1115L491.452 48.2816L492.973 48.6891L497.023 37.7552Z" fill="black"/>
<path d="M515.015 43.5946L516.934 44.4144L515.916 58.0961L516.86 58.7564L516.536 59.5862L511.988 57.5527L512.312 56.7229L513.807 57.2254L514.191 54.2725L509.168 52.1117L507.27 54.2515L508.689 55.0391L508.365 55.8689L504.266 54.0578L504.59 53.228L505.731 53.5335L515.015 43.5946ZM514.96 46.8394L515.203 45.1729L514.13 46.5152L510.018 51.2191L514.401 53.1066L514.96 46.8394Z" fill="black"/>
<path d="M528.726 51.343L527.004 50.1685L527.423 49.3641L531.8 51.6572L530.294 60.3189L529.752 62.7202L531.358 60.9096L537.525 54.6174L541.902 56.9105L541.483 57.7149L539.538 56.9901L535.488 67.924L536.855 68.9016L536.436 69.706L531.705 67.2159L532.124 66.4116L533.689 67.0345L536.804 59.2113L538.126 55.7969L536.159 57.8163L528.925 65.0452L527.861 64.4545L529.355 55.0766L530.013 51.484L528.076 54.5301L523.517 61.6607L525.075 62.6893L524.656 63.4937L520.374 61.226L520.793 60.4216L522.263 61.0191L528.726 51.343Z" fill="black"/>
<path d="M548.096 60.4037L549.844 61.4832L547.255 74.9475L548.198 75.6077L547.779 76.4121L543.548 73.9544L543.967 73.15L545.437 73.7475L546.081 70.9661L541.426 68.191L539.269 70.1594L540.541 71.1115L540.122 71.9159L536.341 69.6805L536.76 68.8762L537.875 69.2768L548.096 60.4037ZM547.661 63.5466L548.094 61.931L546.857 63.1274L542.156 67.3679L546.291 69.8002L547.661 63.5466Z" fill="black"/>
<path d="M556.365 66.7953L555.308 65.7991L555.822 65.0202L557.899 66.3916C558.254 66.5885 558.678 66.9059 559.033 67.1027C559.647 67.4711 560.192 67.7189 560.711 68.0617C562.174 69.0648 563.136 70.0356 563.382 71.0182C563.628 72.0009 563.443 73.0717 562.757 74.1103C562.218 74.9842 561.564 75.5221 560.746 75.9141C559.928 76.306 559.091 76.3874 558.211 76.2533C557.33 76.1191 556.405 75.7694 555.531 75.2297C555.176 75.0328 554.917 74.8614 554.588 74.5695C554.233 74.3726 554.068 74.2266 553.999 74.1061L551.745 77.5764L553.771 79.1379L553.257 79.9168L548.133 76.6088L548.648 75.8299L550.092 76.5224L556.365 66.7953ZM556.045 74.4508C556.919 74.9905 557.68 75.1942 558.542 75.0178C559.404 74.8414 560.178 74.2339 560.914 73.0053C561.454 72.1314 561.683 71.2761 561.456 70.604C561.229 69.9319 560.691 69.2785 559.747 68.6183C559.392 68.4214 559.038 68.2245 558.588 68.0021C558.328 67.8307 558.138 67.7798 558.138 67.7798L554.513 73.3272C554.842 73.6191 555.266 73.9365 556.045 74.4508Z" fill="black"/>
<path d="M560.774 84.1719C560.338 83.1384 560.238 81.9912 560.424 80.9203C560.609 79.8495 561.155 78.5699 561.987 77.3668C562.793 76.2587 563.738 75.3916 564.797 74.8605C565.856 74.3294 567.029 74.1343 568.22 74.2498C569.412 74.3653 570.527 74.7659 571.54 75.5467C572.319 76.0609 573.211 76.9112 574.078 77.8566L574.572 78.2945L572.452 80.884L571.414 80.1983L572.405 78.0194C572.361 77.8038 572.127 77.5374 571.918 77.1759C571.709 76.8144 571.19 76.4715 570.671 76.1287C569.987 75.6399 569.322 75.4616 568.511 75.448C567.699 75.4343 566.907 75.7312 566.158 76.2437C565.41 76.7561 564.585 77.5537 563.925 78.4972C563.265 79.4407 562.794 80.4352 562.445 81.36C562.19 82.3104 562.056 83.1911 562.327 84.0787C562.599 84.9663 563.042 85.5943 563.821 86.1085C564.34 86.4514 564.764 86.7688 565.144 86.8706C565.524 86.9725 565.809 87.0489 566.12 87.0303L567.832 85.9613L568.725 86.8116L566.783 88.7359C566.524 88.5644 566.144 88.4626 565.694 88.2402C565.219 88.1129 564.864 87.916 564.389 87.7887C564.034 87.5918 563.585 87.3695 563.065 87.0266C562.078 86.1508 561.211 85.2055 560.774 84.1719Z" fill="black"/>
<path d="M588.034 88.1151L587.425 88.8685L585.867 87.8399L579.945 95.1148L582.608 94.3004L590.893 92.6499L591.211 92.2256L590.109 91.0138L590.719 90.2604L594.72 93.5734L594.111 94.3268L592.787 93.5647L585.38 102.581L586.507 103.697L585.923 104.356L581.922 101.043L582.506 100.384L583.899 101.267L589.941 93.9226L587.494 94.6928L578.993 96.3875L578.555 96.8813L579.751 98.1186L579.168 98.777L575.071 95.4385L575.655 94.7801L576.953 95.6372L584.36 86.6213L583.328 85.53L583.938 84.7766L588.034 88.1151Z" fill="black"/>
<path d="M597.512 96.4602C598.056 96.708 598.385 96.9999 598.74 97.1968C599.095 97.3937 599.424 97.6856 599.684 97.857C600.836 98.8788 601.583 99.8937 601.828 100.876C602.074 101.859 601.845 102.714 601.141 103.442C600.437 104.17 599.714 104.588 598.807 104.549C597.971 104.63 597.115 104.401 596.337 103.886C597.134 104.711 597.621 105.555 597.702 106.391C597.784 107.228 597.46 108.058 596.876 108.716C596 109.704 594.941 110.235 593.845 110.145C592.723 110.15 591.564 109.534 590.152 108.341C589.563 107.877 589.19 107.37 588.817 106.862C588.443 106.355 588.235 105.994 588 105.727C587.861 105.486 587.722 105.245 587.653 105.125L590.076 102.922L590.735 103.506L589.553 105.634C589.781 106.306 590.318 106.959 591.046 107.664C591.705 108.248 592.25 108.495 592.991 108.388C593.638 108.256 594.335 107.934 594.945 107.18C595.503 106.617 595.681 105.952 595.765 105.261C595.848 104.57 595.335 103.822 594.512 103.092L593.525 102.216L594.229 101.488L595.052 102.218C595.476 102.536 595.9 102.853 596.376 102.98C596.851 103.108 597.351 103.14 597.903 102.982C598.455 102.824 598.841 102.521 599.279 102.027C599.863 101.368 600.111 100.824 599.979 100.177C599.941 99.5558 599.568 99.0484 598.91 98.4645C598.511 98.0521 598.156 97.8552 597.707 97.6329C597.352 97.436 597.041 97.4546 596.826 97.4987L595.424 98.5491L594.506 97.7938L596.334 95.5335C596.638 95.9204 596.992 96.1173 597.512 96.4602Z" fill="black"/>
<path d="M608.652 108.103L607.766 106.847L608.445 106.214L610.205 108.01C610.534 108.302 610.933 108.714 611.426 109.152C611.92 109.59 612.249 109.882 612.414 110.028C613.61 111.265 614.357 112.28 614.413 113.212C614.589 114.074 614.265 114.904 613.561 115.632C612.882 116.265 612.184 116.587 611.443 116.694C610.701 116.801 609.846 116.572 609.067 116.057C609.959 116.908 610.446 117.751 610.502 118.683C610.558 119.614 610.259 120.349 609.555 121.077C608.705 121.97 607.576 122.38 606.48 122.29C605.289 122.175 603.965 121.413 602.509 120.004C602.18 119.712 601.876 119.325 601.642 119.059C601.009 118.38 600.61 117.967 600.446 117.822L598.686 116.026L599.365 115.393L600.637 116.345L608.652 108.103ZM603.118 119.251C604.011 120.101 604.79 120.615 605.601 120.629C606.412 120.643 607.11 120.32 607.789 119.687C608.467 119.054 608.766 118.319 608.729 117.698C608.692 117.077 608.274 116.354 607.477 115.529C606.584 114.679 606.021 114.121 605.787 113.854L601.878 117.798C601.922 118.013 602.416 118.451 603.118 119.251ZM607.339 113.761L608.067 114.465C608.726 115.049 609.34 115.418 609.961 115.38C610.582 115.343 611.28 115.021 611.864 114.362C612.448 113.704 612.79 113.184 612.753 112.563C612.716 111.942 612.298 111.219 611.57 110.515C611.241 110.223 610.912 109.931 610.488 109.614L610.159 109.322L606.516 113.031C606.706 113.082 606.941 113.349 607.339 113.761Z" fill="black"/>
<path d="M620.953 118.835L622.383 120.338L616 132.379L616.651 133.368L615.972 134.001L612.668 130.366L613.347 129.733L614.5 130.754L615.998 128.202L612.296 124.154L609.626 125.374L610.607 126.656L609.928 127.289L606.928 124.04L607.607 123.407L608.525 124.162L620.953 118.835ZM619.473 121.697L620.381 120.209L618.84 121.019L613.139 123.667L616.373 127.182L619.473 121.697Z" fill="black"/>
<path d="M618.397 135.975C618.202 134.802 618.387 133.731 618.883 132.642C619.379 131.553 620.159 130.539 621.32 129.628C622.386 128.692 623.54 128.186 624.738 127.896C625.936 127.606 627.128 127.721 628.243 128.122C629.358 128.522 630.301 129.183 631.143 130.223C631.75 130.997 632.402 131.986 633.003 133.166L633.255 133.743L630.572 135.774L629.8 134.854L631.336 132.923C631.292 132.708 631.273 132.397 631.065 132.035C630.856 131.674 630.578 131.192 630.179 130.78C629.641 130.126 629.027 129.758 628.266 129.554C627.506 129.35 626.669 129.432 625.782 129.703C624.894 129.975 623.93 130.531 623.01 131.303C622.09 132.075 621.361 132.898 620.846 133.677C620.307 134.551 620.077 135.407 620.064 136.218C620.05 137.029 620.347 137.822 620.955 138.595C621.423 139.128 621.752 139.42 622.107 139.617C622.461 139.814 622.721 139.986 623.032 139.967L624.927 139.354L625.579 140.344L623.264 141.761C623.099 141.615 622.77 141.323 622.346 141.005C621.896 140.783 621.567 140.491 621.238 140.199C620.909 139.907 620.484 139.59 620.111 139.082C619.123 138.207 618.592 137.148 618.397 135.975Z" fill="black"/>
<path d="M637.421 142.906C638.568 142.806 639.544 142.965 640.469 143.315C641.394 143.665 642.217 144.394 642.824 145.168C643.571 146.183 643.937 147.096 644.063 148.148C644.093 149.175 643.934 150.151 643.368 151.12C642.803 152.089 642.048 153.007 640.913 153.823C639.752 154.734 638.477 155.31 637.279 155.6C636.081 155.89 634.984 155.8 633.87 155.399C632.755 154.999 632.001 154.389 631.324 153.495C630.577 152.48 630.141 151.446 630.016 150.394C629.89 149.342 630.145 148.392 630.615 147.397C631.18 146.428 631.936 145.51 632.976 144.668L631.179 142.252L626.828 145.567L627.662 147.013L626.914 147.526L623.832 143.441L624.581 142.928L625.708 144.045L634.918 137.04L634.153 135.715L634.927 135.107L637.939 139.072L637.165 139.679L636.038 138.563L632.074 141.575L633.871 143.991C635.24 143.442 636.343 143.126 637.421 142.906ZM639.041 144.46C637.799 144.535 636.309 145.154 634.641 146.439C633.213 147.584 632.217 148.641 631.791 149.851C631.365 151.061 631.491 152.113 632.237 153.128C633.009 154.048 633.909 154.493 635.176 154.323C636.419 154.249 637.839 153.509 639.482 152.319C640.909 151.174 641.906 150.117 642.332 148.907C642.758 147.697 642.632 146.645 641.955 145.75C641.278 144.856 640.284 144.386 639.041 144.46Z" fill="black"/>
<path d="M645.37 162.657C645.166 163.417 644.696 164.412 644.175 165.596C643.756 166.401 643.577 167.066 643.381 167.42C643.279 167.801 643.177 168.181 643.246 168.301L643.474 168.973L642.725 169.486L641.397 167.602C641.258 167.361 641.264 166.955 641.512 166.411C641.76 165.866 642.084 165.036 642.554 164.041C643.171 162.882 643.52 161.958 643.794 161.318C644.067 160.678 644.004 160.152 643.89 159.816L643.239 158.826L638.869 161.832L639.583 163.347L638.834 163.86L635.994 159.635L636.742 159.123L637.749 160.309L647.333 153.812L646.688 152.417L647.436 151.904L650.207 156.008L649.459 156.521L648.452 155.334L643.987 158.314L644.848 159.665L651.432 159.8L650.692 158.379L651.441 157.867L653.978 161.704L653.229 162.216L652.197 161.125L645.448 160.844C645.631 161.301 645.574 161.897 645.37 162.657Z" fill="black"/>
<path d="M644.997 172.03C645.062 171.028 645.342 169.983 646.097 169.065C646.758 168.121 647.703 167.254 648.908 166.559C650.138 165.768 651.362 165.383 652.509 165.283C653.751 165.208 654.822 165.393 655.817 165.863C656.811 166.334 657.634 167.063 658.26 168.148C659.234 169.835 659.543 171.344 659.015 172.934C658.513 174.429 657.345 175.746 655.512 176.884C654.282 177.675 653.058 178.06 651.79 178.23C650.548 178.304 649.477 178.119 648.388 177.623C647.393 177.153 646.596 176.328 645.944 175.339C645.248 174.134 645.028 173.056 644.997 172.03ZM654.535 166.844C653.319 166.824 651.759 167.323 650.046 168.392C648.455 169.391 647.363 170.423 646.842 171.607C646.226 172.766 646.351 173.818 646.978 174.903C647.629 175.892 648.598 176.458 649.815 176.478C651.127 176.524 652.591 176 654.304 174.931C655.896 173.931 656.987 172.9 657.508 171.715C658.004 170.626 657.999 169.504 657.373 168.419C656.721 167.43 655.847 166.89 654.535 166.844Z" fill="black"/>
<path d="M662.027 176.898L661.503 175.434L662.346 174.947L663.599 177.116C663.807 177.477 664.086 177.959 664.459 178.467C664.832 178.974 665.041 179.336 665.18 179.577C665.989 181.118 666.4 182.246 666.24 183.222C666.081 184.198 665.617 184.787 664.748 185.369C664.025 185.786 663.163 185.962 662.378 185.854C661.592 185.745 660.883 185.351 660.275 184.577C660.901 185.662 661.078 186.524 660.918 187.5C660.784 188.381 660.2 189.039 659.356 189.526C658.272 190.152 657.125 190.252 656.01 189.852C654.895 189.451 653.863 188.36 652.82 186.552C652.611 186.191 652.428 185.734 652.219 185.373C651.732 184.529 651.479 183.952 651.41 183.832L650.157 181.663L650.975 181.271L651.861 182.527L662.027 176.898ZM653.568 186.04C654.194 187.124 654.827 187.803 655.587 188.007C656.348 188.21 657.089 188.104 657.933 187.617C658.776 187.13 659.24 186.541 659.392 185.971C659.545 185.4 659.369 184.538 658.812 183.574C658.186 182.49 657.769 181.767 657.63 181.526L652.74 184.188C652.828 184.619 653.081 185.196 653.568 186.04ZM659.15 181.933L659.612 182.872C660.029 183.595 660.618 184.058 661.188 184.211C661.853 184.389 662.5 184.257 663.343 183.77C664.066 183.352 664.504 182.859 664.657 182.288C664.81 181.718 664.608 180.951 664.051 179.987C663.843 179.626 663.539 179.239 663.356 178.782L663.147 178.421L658.594 180.969C658.733 181.21 658.872 181.451 659.15 181.933Z" fill="black"/>
<path d="M676.586 202.393L675.768 202.785L674.908 201.434L664.489 206.485L665.057 208.165L664.239 208.557L661.957 203.77L662.775 203.378L663.635 204.729L674.149 199.703L671.519 194.313L660.98 199.434L661.548 201.114L660.73 201.506L658.423 196.813L659.241 196.421L660.031 197.652L670.45 192.6L669.951 191.041L670.769 190.649L676.586 202.393Z" fill="black"/>
<path d="M666.282 211.957C666.467 210.886 667.007 210.012 667.737 209.189C668.562 208.391 669.576 207.645 670.851 207.07C672.126 206.494 673.419 206.23 674.61 206.345C675.801 206.461 676.847 206.741 677.79 207.401C678.734 208.061 679.411 208.956 679.847 209.989C680.58 211.816 680.673 213.368 679.886 214.787C679.193 216.231 677.766 217.377 675.819 218.179C674.449 218.729 673.156 218.993 671.965 218.878C670.774 218.762 669.633 218.457 668.69 217.797C667.746 217.136 667.069 216.242 666.538 215.183C666.223 214.08 666.027 212.907 666.282 211.957ZM676.439 208.261C675.178 208.025 673.67 208.334 671.723 209.137C669.992 209.895 668.736 210.781 668.05 211.82C667.365 212.858 667.18 213.929 667.685 215.083C668.191 216.237 669.039 216.872 670.3 217.108C671.561 217.344 673.165 217.061 675.017 216.233C676.748 215.474 678.004 214.588 678.689 213.55C679.375 212.511 679.465 211.415 679.054 210.286C678.549 209.132 677.7 208.497 676.439 208.261Z" fill="black"/>
<path d="M676.192 224.39C674.468 224.743 673.105 224.887 672.129 224.728C671.654 224.6 671.179 224.473 670.944 224.207C670.615 223.915 670.381 223.648 670.198 223.192C669.945 222.615 669.857 222.184 669.838 221.873L671.233 221.228C671.252 221.539 671.435 221.995 671.688 222.572C671.732 222.788 671.897 222.934 672.061 223.08C672.226 223.226 672.416 223.277 672.701 223.353C674.437 223.717 677.455 223.099 681.658 221.475L683.028 220.926L682.466 218.84L683.379 218.473L687.195 228.561L686.282 228.928L685.473 227.387L674.592 231.499L675.04 233.249L674.153 233.52L672.144 228.093L673.032 227.822L673.885 229.578L684.765 225.465L683.464 221.959L681.879 222.553C679.786 223.52 677.916 224.038 676.192 224.39Z" fill="black"/>
<path d="M687.273 232.452L686.964 230.944L687.852 230.672L690.826 239.72L688.182 240.844L687.841 239.836L689.363 238.716L688.006 234.278L682.991 235.889L684.04 238.818L685.618 238.63L685.959 239.638L681.832 240.976L681.491 239.968L682.911 239.228L681.983 236.23L676.727 237.979L678.553 242.95L681.151 243.137L681.156 244.258L677.879 244.704L674.608 234.865L675.495 234.593L676.14 235.988L687.273 232.452Z" fill="black"/>
<path d="M692.059 247.282L691.036 244.258L687.043 244.715L686.753 243.517L691.615 242.477L694.814 253.724L690.015 255.29L689.7 254.187L693.308 252.506L692.526 249.342L681.184 252.516L681.713 255.103L680.825 255.374L678.888 248.54L679.776 248.268L680.597 250.526L692.059 247.282Z" fill="black"/>
<path d="M689.118 263.198L688.942 262.336C688.708 262.07 688.233 261.943 687.567 261.764C686.902 261.586 686.116 261.477 685.141 261.318C684.165 261.158 683.5 260.98 683.024 260.853C682.549 260.725 682.29 260.554 682.246 260.338L681.691 257.847L682.553 257.67L682.875 258.368C682.945 258.489 683.204 258.66 683.559 258.857C683.939 258.959 684.51 259.111 685.244 259.41C686.1 259.639 686.86 259.843 687.525 260.021C688.07 260.269 688.52 260.492 688.849 260.783C688.888 259.877 689.187 259.142 689.65 258.554C690.234 257.895 690.957 257.478 691.819 257.301C693.233 256.967 694.399 257.178 695.126 257.882C695.854 258.586 696.455 259.766 696.833 261.395C696.947 261.731 697.01 262.257 697.073 262.783C697.11 263.404 697.198 263.835 697.312 264.172L697.936 266.783L697.048 267.055L696.429 265.565L685.12 268.238L685.377 269.937L684.541 270.019L683.223 264.674L684.085 264.498L684.653 266.178L689.446 265.018L689.118 263.198ZM696.115 262.934C696.053 262.408 695.99 261.882 695.902 261.451C695.656 260.468 695.308 259.866 694.814 259.428C694.32 258.99 693.509 258.976 692.526 259.222C691.544 259.468 690.821 259.886 690.453 260.5C690.084 261.114 689.976 261.9 690.222 262.883C690.468 263.865 690.6 264.512 690.739 264.753L696.299 263.391L696.115 262.934Z" fill="black"/>
<path d="M698.302 273.4L697.615 270.262L693.603 270.41L693.408 269.237L698.359 268.628L700.601 280.026L695.714 281.161L695.518 279.988L699.24 278.643L698.769 275.461L687.181 277.652L687.495 280.283L686.633 280.459L685.247 273.467L686.109 273.291L686.81 275.617L698.302 273.4Z" fill="black"/>
<path d="M688.94 290.855C689.41 289.861 690.165 288.943 691.129 288.386C692.118 287.735 693.342 287.35 694.73 287.11C696.093 286.966 697.405 287.012 698.494 287.508C699.609 287.908 700.527 288.664 701.299 289.584C702.072 290.503 702.482 291.632 702.652 292.9C702.803 293.857 702.808 294.979 702.641 296.36L702.583 296.956L699.262 297.186L699.093 295.919L701.35 295.097C701.496 294.933 701.598 294.553 701.605 294.147C701.611 293.741 701.669 293.146 701.511 292.594C701.404 291.853 701.082 291.155 700.519 290.597C699.955 290.038 699.246 289.644 698.296 289.39C697.345 289.135 696.319 289.166 695.076 289.24C693.904 289.435 692.921 289.681 691.982 290.143C691.044 290.604 690.391 291.142 689.902 291.826C689.413 292.51 689.279 293.391 689.36 294.227C689.492 294.874 689.555 295.4 689.764 295.762C689.878 296.098 690.112 296.364 690.346 296.631L692.247 297.14L692.226 298.357L689.507 298.239C689.463 298.024 689.375 297.593 689.097 297.111C688.914 296.654 688.705 296.293 688.617 295.862C688.529 295.431 688.345 294.974 688.308 294.353C688.328 293.136 688.444 291.945 688.94 290.855Z" fill="black"/>
<path d="M703.842 304.423L702.91 304.479L702.488 302.634L693.095 303.479L695.482 304.832L702.562 309.581L703.088 309.518L703.141 307.8L704.073 307.744L704.536 312.859L703.604 312.915L703.27 311.502L691.677 312.572L691.65 314.194L690.718 314.25L690.281 309.04L691.212 308.984L691.59 310.613L701.079 309.794L698.761 308.562L691.611 303.692L690.99 303.73L690.938 305.447L690.006 305.503L689.568 300.293L690.5 300.237L690.809 301.746L702.402 300.676L702.499 299.174L703.43 299.118L703.842 304.423Z" fill="black"/>
<path d="M705.123 324.73L700.249 325.054L700.175 323.812L703.934 323.087L703.907 319.006L692.156 319.524L692.102 322.769L691.17 322.825L690.792 315.492L691.724 315.436L692 317.445L703.561 316.876L703.69 314.874L704.622 314.818L705.123 324.73Z" fill="black"/>
<path d="M704.042 328.006L704.234 326.529L705.14 326.568L705.102 331.651L704.196 331.612L704.008 330.034L699.02 330.021L698.981 336.631L703.968 336.644L704.16 335.167L705.066 335.206L705.054 340.194L704.148 340.155L703.934 338.672L692.311 338.715L692.119 340.191L691.213 340.152L691.225 335.164L692.131 335.204L692.32 336.782L697.713 336.801L697.753 330.191L692.359 330.172L692.142 331.743L691.236 331.704L691.178 326.596L692.085 326.635L692.298 328.118L704.042 328.006Z" fill="black"/>
<path d="M705.084 346.925L705.05 348.953L691.977 352.885L691.767 354.051L690.86 354.012L691.063 349.075L691.969 349.114L692.062 350.667L694.915 349.904L695.15 344.466L692.47 343.443L692.253 345.014L691.347 344.975L691.517 340.539L692.423 340.578L692.523 341.725L705.084 346.925ZM702.034 348.043L703.664 347.664L701.979 347.111L696.049 344.911L695.803 349.632L702.034 348.043Z" fill="black"/>
<path d="M695.449 359.316C693.738 358.858 692.528 358.431 691.68 357.797C691.255 357.479 690.926 357.187 690.812 356.851C690.604 356.49 690.611 356.084 690.617 355.679C690.675 355.083 690.682 354.677 690.853 354.418L692.381 354.42C692.304 354.705 692.272 355.205 692.214 355.801C692.163 355.991 692.208 356.207 692.347 356.448C692.391 356.663 692.555 356.809 692.815 356.98C694.157 358.053 697.224 358.773 701.704 359.159L703.206 359.255L703.576 357.114L704.482 357.153L703.538 367.9L702.632 367.861L702.589 366.118L691.056 365.065L690.667 366.896L689.761 366.857L690.288 361.091L691.194 361.13L691.185 363.063L702.718 364.116L703.021 360.326L701.329 360.178C699.041 359.973 697.09 359.654 695.449 359.316Z" fill="black"/>
<path d="M697.09 375.238C696.898 376.714 696.377 377.899 695.483 378.576C694.683 379.278 693.606 379.499 692.319 379.358C690.938 379.191 689.899 378.506 689.248 377.516C688.596 376.527 688.427 375.259 688.619 373.783C688.67 373.593 688.72 373.403 688.676 373.187C688.632 372.972 688.778 372.807 688.855 372.522C689.033 371.857 689.116 371.166 689.269 370.596L689.646 368.048L690.527 368.183L690.499 369.805L702.07 371.479L702.572 369.984L703.453 370.118L702.648 375.403L701.767 375.269L701.655 373.405L697.347 372.76L697.09 375.238ZM689.856 372.586C689.805 372.776 689.703 373.157 689.696 373.562C689.511 374.633 689.713 375.4 690.251 376.054C690.789 376.707 691.498 377.101 692.594 377.191C693.57 377.35 694.432 377.174 694.965 376.706C695.593 376.263 695.892 375.528 696.077 374.457L696.371 372.601L690.085 371.731C689.983 372.111 689.907 372.396 689.856 372.586ZM700.796 387.639L699.915 387.504L699.968 385.787L688.492 384.138L688.034 385.849L687.153 385.715L687.888 380.31L688.769 380.444L688.716 382.161L700.192 383.81L700.65 382.099L701.531 382.234L700.796 387.639Z" fill="black"/>
<path d="M697.984 395.849L698.557 394.474L699.412 394.703L698.278 399.696L697.422 399.467L697.545 397.87L692.647 396.761L691.226 403.205L696.124 404.314L696.696 402.939L697.551 403.168L696.443 408.066L695.587 407.837L695.684 406.335L684.317 403.9L683.84 405.3L682.985 405.071L684.094 400.173L684.949 400.403L684.852 401.905L690.155 403.02L691.576 396.576L686.273 395.461L685.745 397.051L684.89 396.822L686.024 391.829L686.879 392.058L686.782 393.56L697.984 395.849Z" fill="black"/>
<path d="M694.952 414.389L694.417 416.385L680.84 417.636L680.345 418.725L679.49 418.496L680.668 413.719L681.523 413.948L681.306 415.52L684.196 415.377L685.501 410.125L683.044 408.652L682.447 410.121L681.591 409.892L682.642 405.59L683.497 405.82L683.382 407.011L694.952 414.389ZM691.795 414.765L693.538 414.723L692.024 413.91L686.686 410.646L685.559 415.233L691.795 414.765Z" fill="black"/>
<path d="M689.427 429.308L690.341 427.414L691.171 427.738L689.613 432.413L680.81 432.194L678.402 432.058L680.505 433.334L687.673 438.514L686.114 443.189L685.285 442.865L685.724 440.844L674.212 438.574L673.519 440.018L672.689 439.694L674.375 434.543L675.205 434.868L674.867 436.509L683.116 438.414L686.683 439.166L684.372 437.528L676.121 431.446L676.522 430.331L685.997 430.324L689.742 430.411L686.379 428.898L678.632 425.498L677.863 427.228L677.033 426.903L678.566 422.323L679.396 422.647L679.083 424.193L689.427 429.308Z" fill="black"/>
<path d="M683.495 449.923L682.771 451.868L669.152 451.376L668.586 452.345L667.757 452.021L669.6 447.422L670.43 447.746L670.022 449.267L672.931 449.435L674.902 444.361L672.642 442.533L671.854 443.952L671.024 443.627L672.645 439.478L673.475 439.802L673.265 440.968L683.495 449.923ZM680.251 449.868L681.943 450.016L680.575 449.038L675.725 445.091L674.027 449.525L680.251 449.868Z" fill="black"/>
<path d="M678.427 458.954L679.259 457.751L680.089 458.075L679.072 460.349C678.849 460.799 678.748 461.179 678.551 461.534C678.277 462.174 678.125 462.744 677.877 463.289C677.133 464.923 676.353 465.936 675.414 466.397C674.501 466.764 673.474 466.794 672.195 466.248C671.295 465.803 670.611 465.314 670.099 464.566C669.587 463.817 669.385 463.05 669.329 462.119C669.273 461.187 669.527 460.236 669.972 459.337C670.169 458.982 670.245 458.697 670.442 458.343C670.639 457.988 670.69 457.798 670.811 457.728L667.067 456.114L665.86 458.337L665.03 458.013L667.534 452.471L668.364 452.795L667.861 454.29L678.427 458.954ZM670.872 459.782C670.427 460.681 670.413 461.492 670.685 462.38C670.956 463.268 671.71 463.877 672.989 464.423C673.984 464.894 674.795 464.907 675.372 464.654C676.069 464.332 676.558 463.648 677.028 462.654C677.225 462.299 677.327 461.919 677.454 461.444C677.531 461.159 677.582 460.969 677.607 460.874L671.495 458.217C671.418 458.502 671.17 459.047 670.872 459.782Z" fill="black"/>
<path d="M661.96 466.052C662.924 465.495 664.027 465.18 665.149 465.175C666.365 465.195 667.601 465.526 668.855 466.168C670.109 466.809 671.122 467.59 671.774 468.579C672.52 469.594 672.836 470.697 672.936 471.845C673.036 472.992 672.825 474.158 672.209 475.317C671.765 476.216 671.104 477.16 670.298 478.268L669.955 478.787L667.023 477.187L667.518 476.097L669.894 476.734C670.11 476.69 670.376 476.455 670.668 476.126C670.96 475.797 671.182 475.347 671.525 474.828C671.919 474.119 672.002 473.428 671.826 472.566C671.719 471.824 671.302 471.101 670.694 470.327C670.061 469.648 669.213 469.014 668.054 468.398C666.964 467.902 665.944 467.527 664.969 467.367C663.993 467.208 663.061 467.263 662.243 467.655C661.45 467.952 660.892 468.516 660.447 469.415C660.174 470.055 659.952 470.505 659.945 470.91C659.843 471.29 659.862 471.601 659.975 471.937L661.311 473.415L660.651 474.359L658.434 472.746C658.511 472.461 658.613 472.081 658.74 471.606C658.867 471.131 658.874 470.725 659.001 470.25C659.103 469.87 659.351 469.325 659.599 468.78C660.215 467.621 660.97 466.703 661.96 466.052Z" fill="black"/>
<path d="M662.332 493.551L661.553 493.037L662.322 491.307L654.216 486.589L655.392 489.043L658.335 497.064L658.785 497.286L659.858 495.944L660.637 496.458L658.033 500.853L657.254 500.339L657.826 498.964L647.782 493.115L646.83 494.388L646.025 493.969L648.654 489.479L649.459 489.898L648.741 491.437L656.917 496.276L655.69 494.012L652.772 485.896L652.157 485.528L651.059 486.965L650.255 486.546L652.91 481.961L653.714 482.38L653.116 483.85L663.161 489.699L664.088 488.521L664.866 489.035L662.332 493.551Z" fill="black"/>
<path d="M655.614 504.178C655.367 504.722 655.239 505.197 655.042 505.552C654.846 505.907 654.649 506.261 654.477 506.521C653.62 507.819 652.77 508.712 651.857 509.078C650.944 509.445 650.037 509.406 649.163 508.866C648.29 508.326 647.872 507.603 647.696 506.741C647.519 505.879 647.628 505.093 647.978 504.168C647.317 505.112 646.544 505.719 645.681 505.896C644.819 506.072 644.034 505.964 643.255 505.449C642.121 504.738 641.444 503.844 641.344 502.696C641.218 501.644 641.575 500.314 642.603 498.756C642.972 498.142 643.41 497.648 643.848 497.154C644.26 496.755 644.647 496.452 644.913 496.217C645.18 495.983 645.326 495.819 645.421 495.844L647.941 497.843L647.427 498.622L645.127 497.701C644.525 498.048 643.966 498.612 643.306 499.555C642.817 500.239 642.734 500.93 642.866 501.576C642.999 502.223 643.562 502.781 644.436 503.321C645.05 503.69 645.715 503.868 646.457 503.761C647.199 503.654 647.852 503.116 648.392 502.242L649.103 501.109L649.977 501.648L649.437 502.522C649.12 502.947 648.993 503.422 648.865 503.897C648.833 504.398 648.896 504.924 649.079 505.38C649.262 505.837 649.661 506.249 650.18 506.592C650.864 507.081 651.555 507.164 652.106 507.006C652.658 506.848 653.191 506.38 653.68 505.696C653.997 505.272 654.219 504.822 654.226 504.417C654.328 504.037 654.309 503.726 654.17 503.485L652.879 502.222L653.539 501.279L656.022 502.657C655.964 503.253 655.767 503.607 655.614 504.178Z" fill="black"/>
<path d="M645.827 517.139L646.943 516.012L647.722 516.527L646.256 518.578C645.964 518.907 645.742 519.357 645.373 519.971C645.03 520.491 644.834 520.845 644.662 521.105C643.685 522.473 642.739 523.34 641.852 523.611C640.964 523.883 640.083 523.749 639.33 523.139C638.646 522.651 638.108 521.997 637.932 521.135C637.73 520.368 637.838 519.582 638.163 518.752C637.502 519.696 636.728 520.303 635.841 520.575C634.979 520.751 634.098 520.617 633.345 520.008C632.331 519.227 631.775 518.263 631.675 517.116C631.575 515.969 632.077 514.473 633.321 512.872C633.613 512.542 633.81 512.188 634.102 511.859C634.711 511.105 635.054 510.586 635.175 510.516L636.641 508.465L637.42 508.979L636.658 510.303L645.827 517.139ZM633.91 513.335C633.129 514.348 632.875 515.298 632.887 516.015C632.898 516.731 633.411 517.479 634.19 517.993C634.943 518.603 635.704 518.806 636.35 518.674C636.997 518.542 637.65 518.004 638.285 517.155C639.066 516.142 639.459 515.433 639.631 515.173L635.103 511.923C634.983 511.993 634.545 512.486 633.91 513.335ZM639.965 516.587L639.33 517.436C638.841 518.119 638.663 518.785 638.796 519.431C638.928 520.078 639.371 520.706 640.055 521.195C640.739 521.683 641.404 521.862 642.025 521.824C642.576 521.667 643.204 521.224 643.865 520.28C644.157 519.951 644.379 519.501 644.576 519.147L644.773 518.792L640.6 515.739C640.549 515.929 640.282 516.163 639.965 516.587Z" fill="black"/>
<path d="M637.051 530.881L635.807 532.483L622.852 527.993L622.027 528.791L621.274 528.181L624.346 524.319L625.1 524.928L624.242 526.226L626.922 527.25L630.311 522.963L628.704 520.598L627.588 521.724L626.834 521.115L629.589 517.677L630.342 518.286L629.752 519.35L637.051 530.881ZM633.966 529.851L635.531 530.473L634.481 529.072L630.988 523.858L628.062 527.556L633.966 529.851Z" fill="black"/>
<path d="M619.699 531.019C620.802 530.703 621.924 530.698 623.064 531.004C624.205 531.309 625.338 532.021 626.421 532.922C627.504 533.823 628.25 534.838 628.661 535.966C629.071 537.095 629.171 538.242 628.961 539.408C628.75 540.574 628.16 541.638 627.404 542.556C626.795 543.309 625.875 544.082 624.835 544.923L624.327 545.297L621.909 542.917L622.76 542.024L624.888 543.206C625.103 543.162 625.439 543.048 625.826 542.744C626.188 542.536 626.6 542.137 626.943 541.618C627.501 541.054 627.8 540.319 627.814 539.508C627.922 538.722 627.72 537.955 627.233 537.112C626.746 536.268 626.164 535.399 625.151 534.619C624.233 533.863 623.385 533.229 622.46 532.879C621.535 532.529 620.654 532.395 619.818 532.477C618.981 532.558 618.258 532.975 617.649 533.729C617.211 534.223 616.893 534.647 616.792 535.027C616.595 535.382 616.613 535.692 616.537 535.977L617.39 537.734L616.471 538.506L614.787 536.425C614.933 536.261 615.13 535.906 615.378 535.361C615.6 534.911 615.797 534.557 615.994 534.202C616.191 533.847 616.508 533.423 616.946 532.929C617.581 532.081 618.596 531.334 619.699 531.019Z" fill="black"/>
<path d="M615.784 550.952C616.099 552.055 616.13 553.082 615.875 554.032C615.62 554.983 615.176 555.882 614.376 556.585C613.526 557.477 612.562 558.034 611.579 558.28C610.597 558.526 609.5 558.436 608.481 558.061C607.461 557.685 606.422 557 605.434 556.124C604.377 555.128 603.561 553.992 603.176 552.769C602.765 551.64 602.57 550.467 602.85 549.422C603.035 548.351 603.601 547.382 604.331 546.559C605.181 545.667 606.145 545.11 607.153 544.769C608.135 544.523 609.232 544.613 610.252 544.988C611.272 545.363 612.31 546.049 613.298 546.925L615.411 544.741L611.442 540.927L610.16 541.908L609.527 541.229L613.075 537.494L613.733 538.078L612.781 539.351L621.118 547.39L622.279 546.479L622.912 547.158L619.39 550.798L618.757 550.119L619.709 548.846L616.069 545.325L613.956 547.509C614.937 548.79 615.468 549.849 615.784 550.952ZM614.609 552.675C614.319 551.476 613.459 550.126 612.003 548.717C610.711 547.454 609.388 546.692 608.127 546.456C606.866 546.22 605.763 546.536 604.913 547.428C604.062 548.321 603.808 549.271 604.098 550.469C604.388 551.667 605.248 553.018 606.799 554.452C608.09 555.715 609.319 556.452 610.554 556.783C611.79 557.114 612.798 556.773 613.648 555.88C614.499 554.988 614.779 553.942 614.609 552.675Z" fill="black"/>
<path d="M597.512 561.742C596.726 561.634 595.681 561.354 594.446 561.022C593.59 560.793 592.925 560.615 592.45 560.488C592.07 560.386 591.759 560.405 591.518 560.544L590.821 560.866L590.188 560.187L591.838 558.592C592.079 558.453 592.415 558.339 593.08 558.517C593.65 558.67 594.505 558.899 595.646 559.205C596.856 559.631 597.806 559.886 598.592 559.994C599.257 560.173 599.783 560.11 600.075 559.781L600.9 558.983L597.267 555.056L595.89 556.011L595.257 555.332L599.039 551.864L599.672 552.543L598.65 553.695L606.549 562.228L607.805 561.343L608.438 562.022L604.777 565.42L604.144 564.742L605.096 563.469L601.463 559.541L600.251 560.643L601.143 567.197L602.399 566.311L603.032 566.99L599.638 570.155L599.005 569.476L599.932 568.298L599.186 561.58C599.014 561.839 598.298 561.851 597.512 561.742Z" fill="black"/>
<path d="M588.233 562.923C589.285 562.797 590.356 562.982 591.325 563.547C592.414 564.043 593.307 564.893 594.243 565.959C595.18 567.025 595.781 568.205 596.071 569.403C596.361 570.601 596.366 571.723 595.991 572.742C595.616 573.762 595.05 574.731 594.131 575.503C592.678 576.744 591.118 577.243 589.547 577.025C587.975 576.808 586.512 575.805 585.012 574.181C584.076 573.115 583.475 571.935 583.185 570.737C582.895 569.539 582.89 568.417 583.29 567.302C583.596 566.162 584.231 565.313 585.151 564.541C586.147 563.484 587.18 563.048 588.233 562.923ZM594.794 571.505C594.625 570.237 593.885 568.817 592.55 567.339C591.309 565.886 590.106 565.054 588.896 564.628C587.686 564.202 586.608 564.423 585.689 565.195C584.769 565.967 584.394 566.987 584.563 568.254C584.733 569.522 585.472 570.943 586.782 572.516C588.023 573.969 589.226 574.8 590.436 575.227C591.672 575.558 592.749 575.337 593.669 574.565C594.589 573.793 594.964 572.773 594.794 571.505Z" fill="black"/>
<path d="M586.101 580.38L587.427 579.615L588.034 580.389L586.099 581.908C585.738 582.116 585.325 582.515 584.888 583.009C584.475 583.408 584.088 583.711 583.847 583.851C582.445 584.901 581.386 585.432 580.455 585.488C579.523 585.544 578.719 585.125 578.111 584.351C577.573 583.697 577.276 582.905 577.29 582.093C577.304 581.282 577.602 580.547 578.186 579.889C577.266 580.661 576.353 581.028 575.447 580.989C574.541 580.949 573.736 580.53 573.129 579.756C572.382 578.741 572.067 577.638 572.277 576.472C572.488 575.307 573.44 574.034 574.988 572.819C575.375 572.515 575.736 572.306 576.003 572.072C576.777 571.465 577.259 571.186 577.405 571.022L579.339 569.503L579.852 570.252L578.735 571.378L586.101 580.38ZM575.716 573.523C574.701 574.27 574.187 575.049 574.078 575.834C573.969 576.62 574.171 577.387 574.779 578.161C575.386 578.935 576 579.303 576.691 579.387C577.382 579.47 578.079 579.147 578.974 578.47C579.989 577.724 580.642 577.186 580.813 576.926L577.403 572.549C577.023 572.447 576.515 572.821 575.716 573.523ZM580.647 578.308L579.873 578.915C579.22 579.453 578.851 580.067 578.768 580.758C578.685 581.449 578.912 582.121 579.545 582.8C580.083 583.453 580.697 583.821 581.293 583.879C581.889 583.937 582.586 583.615 583.481 582.937C583.868 582.634 584.16 582.305 584.547 582.001L584.813 581.767L581.636 577.656C581.3 577.77 581.034 578.004 580.647 578.308Z" fill="black"/>
<g style="mix-blend-mode:overlay">
<circle cx="171.44" cy="112.395" r="2" fill="black"/>
</g>
<g style="mix-blend-mode:overlay">
<circle cx="575.939" cy="86.7655" r="2" fill="black"/>
</g>
</g>
</svg>
